<svg width="57" height="60" viewBox="0 0 57 60" fill="none" xmlns="http://www.w3.org/2000/svg">
<path d="M6.04933 59.4186H50.3975C53.7376 59.4186 56.4453 56.7052 56.4453 53.3582V36.2576C56.4453 32.9105 53.7376 30.1971 50.3975 30.1971H47.4447C50.4323 23.7395 48.4219 15.3446 42.8324 10.9501C40.4514 9.07801 37.5984 7.92898 34.9225 6.51164C32.2465 5.0943 29.6174 3.27373 28.2227 0.581543C26.8279 3.27373 24.1988 5.09278 21.5229 6.51164C18.8469 7.93049 15.9954 9.07801 13.6129 10.9501C8.02493 15.3446 6.01303 23.7395 9.00063 30.1971H6.04782C2.70775 30.1971 0 32.9105 0 36.2576V53.3582C0.00151271 56.7052 2.70927 59.4186 6.04933 59.4186Z" fill="#FFF2E7"/>
<path d="M14.0543 43.2479C15.3246 41.6992 17.5961 41.4413 19.1813 42.6657C20.6669 43.8131 21.0591 45.8905 20.0941 47.5005L17.3946 52.0043C16.1106 54.1464 13.2235 54.6478 11.2926 53.0639C9.54611 51.6314 9.29162 49.0543 10.7242 47.3078L14.0543 43.2479Z" fill="#FFD0C0"/>
<path d="M13.4378 42.2396C14.6208 40.7974 16.7428 40.5729 18.2013 41.7357L19.5063 42.7761C20.6914 43.7208 21.114 45.3325 20.545 46.7372C19.6785 48.8762 16.9867 49.562 15.2023 48.0984L13.9119 47.0399C12.4554 45.8452 12.2431 43.696 13.4378 42.2396Z" fill="#FFA17E"/>
<ellipse cx="18.2898" cy="41.0067" rx="6.50734" ry="7.07228" transform="rotate(13.9722 18.2898 41.0067)" fill="#FFD0C0"/>
<rect x="17.7318" y="25.2778" width="2.78074" height="13.466" rx="1.39037" transform="rotate(20.3404 17.7318 25.2778)" fill="#FFD0C0"/>
<rect x="21.4904" y="24.499" width="2.78074" height="12.8905" rx="1.39037" transform="rotate(20.3404 21.4904 24.499)" fill="#FFD0C0"/>
<rect x="23.8326" y="27.1897" width="2.78074" height="10.2827" rx="1.39037" transform="rotate(20.3404 23.8326 27.1897)" fill="#FFD0C0"/>
<rect x="25.6676" y="31.5059" width="2.78074" height="10.7609" rx="1.39037" transform="rotate(20.9594 25.6676 31.5059)" fill="#FFD0C0"/>
<rect x="9.56715" y="33.1201" width="3.54005" height="10.3676" rx="1.77003" transform="rotate(-14.4892 9.56715 33.1201)" fill="#FFD0C0"/>
<ellipse cx="16.2477" cy="43.6099" rx="3.99941" ry="3.09388" transform="rotate(64.5164 16.2477 43.6099)" fill="#FFA17E"/>
<ellipse cx="18.9696" cy="38.3749" rx="3.99941" ry="1.96482" transform="rotate(27.9029 18.9696 38.3749)" fill="#FFA17E"/>
<ellipse cx="15.8782" cy="43.5473" rx="4.36555" ry="2.98529" transform="rotate(64.5164 15.8782 43.5473)" fill="#FFD0C0"/>
<ellipse cx="18.6398" cy="38.537" rx="4.36555" ry="1.84779" transform="rotate(27.9029 18.6398 38.537)" fill="#FFD0C0"/>
<path d="M42.4644 43.2479C41.1941 41.6992 38.9226 41.4413 37.3374 42.6657C35.8518 43.8131 35.4596 45.8905 36.4246 47.5005L39.1241 52.0043C40.4081 54.1464 43.2952 54.6478 45.2261 53.0639C46.9726 51.6314 47.2271 49.0543 45.7945 47.3078L42.4644 43.2479Z" fill="#FFD0C0"/>
<path d="M43.0809 42.2396C41.8979 40.7974 39.7759 40.5729 38.3174 41.7357L37.0124 42.7761C35.8273 43.7208 35.4047 45.3325 35.9737 46.7372C36.8402 48.8762 39.532 49.562 41.3164 48.0984L42.6068 47.0399C44.0633 45.8452 44.2755 43.696 43.0809 42.2396Z" fill="#FFA17E"/>
<ellipse cx="6.50734" cy="7.07228" rx="6.50734" ry="7.07228" transform="matrix(-0.970413 0.24145 0.24145 0.970413 42.836 32.5725)" fill="#FFD0C0"/>
<rect width="2.78074" height="13.466" rx="1.39037" transform="matrix(-0.937644 0.347597 0.347597 0.937644 38.7869 25.2778)" fill="#FFD0C0"/>
<rect width="2.78074" height="12.8905" rx="1.39037" transform="matrix(-0.937644 0.347597 0.347597 0.937644 35.0283 24.499)" fill="#FFD0C0"/>
<rect width="2.78074" height="10.2827" rx="1.39037" transform="matrix(-0.937644 0.347597 0.347597 0.937644 32.6861 27.1897)" fill="#FFD0C0"/>
<rect width="2.78074" height="10.7609" rx="1.39037" transform="matrix(-0.933834 0.357706 0.357706 0.933834 30.8511 31.5059)" fill="#FFD0C0"/>
<rect width="3.54005" height="10.3676" rx="1.77003" transform="matrix(-0.968195 -0.250198 -0.250198 0.968195 46.9515 33.1201)" fill="#FFD0C0"/>
<ellipse cx="3.99941" cy="3.09388" rx="3.99941" ry="3.09388" transform="matrix(-0.430252 0.902709 0.902709 0.430252 39.1989 38.6685)" fill="#FFA17E"/>
<ellipse cx="3.99941" cy="1.96482" rx="3.99941" ry="1.96482" transform="matrix(-0.883742 0.467975 0.467975 0.883742 40.164 34.7668)" fill="#FFA17E"/>
<ellipse cx="4.36555" cy="2.98529" rx="4.36555" ry="2.98529" transform="matrix(-0.430252 0.902709 0.902709 0.430252 39.8239 38.322)" fill="#FFD0C0"/>
<ellipse cx="4.36555" cy="1.84779" rx="4.36555" ry="1.84779" transform="matrix(-0.883742 0.467975 0.467975 0.883742 40.8722 34.8611)" fill="#FFD0C0"/>
</svg>
