<svg width="437" height="409" viewBox="0 0 437 409" fill="none" xmlns="http://www.w3.org/2000/svg">
<g clip-path="url(#clip0_42_3851)">
<path opacity="0.3" fill-rule="evenodd" clip-rule="evenodd" d="M395.235 280.119L400.178 281.344C401.172 281.589 401.172 283.002 400.178 283.25L395.235 284.471C392.929 285.043 391.127 286.845 390.559 289.15L387.414 301.846C387.17 302.842 385.754 302.842 385.509 301.846L382.364 289.15C381.796 286.845 379.994 285.043 377.688 284.471L372.745 283.25C371.752 283.002 371.752 281.589 372.745 281.344L377.688 280.119C379.994 279.548 381.796 277.748 382.364 275.442L385.509 262.746C385.754 261.751 387.17 261.751 387.414 262.746L390.559 275.442C391.127 277.748 392.929 279.548 395.235 280.119Z" fill="#FF8C40"/>
<path opacity="0.3" fill-rule="evenodd" clip-rule="evenodd" d="M420.506 301.415L423.177 302.077C423.715 302.209 423.715 302.975 423.177 303.107L420.506 303.769C419.259 304.078 418.285 305.052 417.975 306.299L416.275 313.168C416.142 313.706 415.377 313.706 415.244 313.168L413.544 306.299C413.234 305.052 412.26 304.078 411.013 303.769L408.342 303.107C407.801 302.975 407.801 302.209 408.342 302.077L411.013 301.415C412.26 301.106 413.234 300.132 413.544 298.885L415.244 292.019C415.377 291.478 416.142 291.478 416.275 292.019L417.975 298.885C418.285 300.132 419.259 301.106 420.506 301.415Z" fill="#FF8C40"/>
<path opacity="0.3" fill-rule="evenodd" clip-rule="evenodd" d="M388.704 326.213L391.379 326.874C391.916 327.009 391.916 327.772 391.379 327.907L388.704 328.569C387.457 328.879 386.483 329.85 386.176 331.1L384.476 337.965C384.341 338.503 383.578 338.503 383.443 337.965L381.743 331.1C381.436 329.85 380.462 328.879 379.215 328.569L376.54 327.907C376.003 327.772 376.003 327.009 376.54 326.874L379.215 326.213C380.462 325.906 381.436 324.932 381.743 323.685L383.443 316.816C383.578 316.278 384.341 316.278 384.476 316.816L386.176 323.685C386.483 324.932 387.457 325.906 388.704 326.213Z" fill="#FF8C40"/>
<path opacity="0.3" fill-rule="evenodd" clip-rule="evenodd" d="M409.085 325.323C409.085 324.18 408.159 323.254 407.016 323.254C405.873 323.254 404.947 324.18 404.947 325.323C404.947 326.466 405.873 327.392 407.016 327.392C408.159 327.392 409.085 326.466 409.085 325.323Z" fill="#FF8C40"/>
<path opacity="0.3" fill-rule="evenodd" clip-rule="evenodd" d="M376.138 309.945C376.138 308.802 375.212 307.876 374.069 307.876C372.926 307.876 372 308.802 372 309.945C372 311.088 372.926 312.011 374.069 312.011C375.212 312.011 376.138 311.088 376.138 309.945Z" fill="#FF8C40"/>
<path opacity="0.3" fill-rule="evenodd" clip-rule="evenodd" d="M411.151 276.651C411.151 275.509 410.228 274.583 409.085 274.583C407.942 274.583 407.016 275.509 407.016 276.651C407.016 277.793 407.942 278.72 409.085 278.72C410.228 278.72 411.151 277.793 411.151 276.651Z" fill="#FF8C40"/>
<path opacity="0.5" fill-rule="evenodd" clip-rule="evenodd" d="M179.252 44.1744C175.728 44.1744 172.123 43.9937 169.087 43.8128C166.052 43.632 163.587 43.4513 162.342 43.4513C162.339 43.4513 162.333 43.4513 162.331 43.4513C129.174 43.4784 96.0174 43.5067 62.8636 43.5332C62.8551 43.5332 62.8494 43.5332 62.8438 43.5332C60.3845 43.5332 57.365 43.1662 56.4638 40.8822C55.2369 37.7738 59.2636 35.1951 62.5699 34.7233C64.3431 34.4706 66.1332 34.3909 67.9261 34.3909C69.4537 34.3909 70.9868 34.4485 72.5172 34.5061C74.0475 34.5637 75.5779 34.6213 77.0998 34.6213C79.624 34.6213 82.1285 34.4629 84.5878 33.8833C92.1463 32.1008 98.8889 26.4325 106.515 26.4325C106.959 26.4325 107.402 26.4515 107.851 26.4916C114.873 27.1175 120.96 32.8614 127.872 32.8614C128.273 32.8614 128.677 32.8422 129.084 32.8013C138.432 31.8636 145.39 20 153.835 20C154.84 20 155.865 20.1677 156.918 20.5424C161.822 22.2845 164.2 27.9191 168.624 30.6605C171.97 32.7332 198.828 32.949 194.101 40.8757C192.534 43.5044 186.04 44.1744 179.252 44.1744Z" fill="#E0E4D9"/>
<path fill-rule="evenodd" clip-rule="evenodd" d="M133.777 405.298C126.002 405.298 118.284 401.964 110.449 400.79C104.096 399.838 97.2815 400.235 91.6777 397.098C90.9463 396.688 90.1483 395.996 90.3501 395.182C90.4808 394.661 90.9898 394.329 91.4828 394.115C92.7714 393.554 94.17 393.444 95.5893 393.444C96.0548 393.444 96.5202 393.455 96.9857 393.467C97.4511 393.478 97.9143 393.489 98.3751 393.489C98.4095 393.489 98.4416 393.489 98.4737 393.489C104.24 393.467 109.975 391.343 115.657 391.343C116.897 391.343 118.137 391.444 119.373 391.692C123.168 392.451 127.045 394.542 130.721 394.542C131.84 394.542 132.94 394.349 134.016 393.863C135.377 393.249 136.503 392.217 137.767 391.417C140.254 389.844 143.125 389.248 146.076 389.248C148.855 389.248 151.705 389.775 154.376 390.513C156.252 391.034 158.127 391.648 160.074 391.756C160.292 391.768 160.507 391.772 160.725 391.772C162.569 391.772 164.398 391.375 166.233 391.137C167.991 390.908 169.755 390.823 171.525 390.823C174.04 390.823 176.564 390.995 179.091 391.167C181.616 391.339 184.145 391.511 186.667 391.511C187.648 391.511 188.627 391.483 189.606 391.421C191.81 391.281 194.19 390.869 195.694 389.25C191.363 385.471 184.78 386.81 179.103 385.898C177.816 385.691 176.193 384.669 176.778 383.504C177.066 382.933 177.766 382.729 178.389 382.601C181.21 382.018 184.067 381.805 186.942 381.805C190.92 381.805 194.937 382.213 198.95 382.624C202.96 383.032 206.968 383.442 210.925 383.442C214.518 383.442 218.068 383.105 221.548 382.126C226.12 380.84 230.257 377.93 234.998 377.678C235.395 377.657 235.794 377.646 236.19 377.646C237.442 377.646 238.694 377.763 239.903 378.084C241.964 378.632 243.821 379.751 245.779 380.601C253.658 384.029 262.763 383.032 271.017 385.414C271.677 385.607 272.386 385.857 272.757 386.434C273.328 387.315 272.798 388.569 271.92 389.142C271.04 389.715 269.939 389.789 268.889 389.846C257.727 390.435 246.547 390.759 235.37 390.816C230.165 390.844 226.026 391.969 221.211 393.939C216.953 395.679 212.695 397.419 208.438 399.16C205.36 400.419 202.267 401.682 199.032 402.448C196.077 403.145 193.087 403.415 190.076 403.415C184.959 403.415 179.777 402.636 174.597 401.858C169.42 401.079 164.245 400.302 159.141 400.302C155.876 400.302 152.638 400.62 149.449 401.462C145.576 402.482 141.905 404.252 137.959 404.947C136.563 405.192 135.169 405.298 133.777 405.298Z" fill="#E0E4D9"/>
<path fill-rule="evenodd" clip-rule="evenodd" d="M347.104 175.209C347.104 175.209 350.548 156.772 336.921 151.812C335.15 151.166 333.966 149.487 333.966 147.601V140.51C333.966 138.65 332.823 136.985 331.086 136.324C327.12 134.814 320.51 130.968 320.922 122.175C321.556 108.692 335.637 109.352 333.909 92.7585C332.946 81.6881 324.613 79.5809 319.635 79.3224C317.927 79.2337 316.68 77.6813 317.006 76.0027C319.91 61.0694 302.432 42.5137 283.491 49.0054C281.867 49.562 280.12 48.5193 279.849 46.8242C279.064 41.9225 276.292 33.0867 266.553 27.3629C257.752 22.1898 251.501 16.2352 247.814 12.1683C246.615 10.8459 244.546 10.8459 243.348 12.1683C239.663 16.2352 233.41 22.1898 224.609 27.3629C214.87 33.0871 212.098 41.9238 211.313 46.8253C211.042 48.531 209.279 49.5545 207.644 48.9962C188.712 42.5316 171.254 61.0764 174.156 76.0027C174.482 77.6813 173.235 79.2337 171.527 79.3224C166.551 79.5809 158.216 81.6881 157.253 92.7585C155.525 109.352 169.605 108.692 170.24 122.175C170.652 130.967 164.044 134.812 160.077 136.321C158.339 136.985 157.195 138.65 157.195 140.51V147.601C157.195 149.487 156.012 151.166 154.24 151.812C140.614 156.772 144.06 175.209 144.06 175.209V341.692C144.06 349.992 150.788 356.722 159.088 356.722H332.461C340.762 356.722 347.492 349.992 347.492 341.692V175.209H347.104Z" fill="#FFE8D1"/>
<path fill-rule="evenodd" clip-rule="evenodd" d="M332.458 367.858H159.087C144.659 367.858 132.921 356.12 132.921 341.692V176.053C132.59 173.644 132.187 168.913 133.044 163.601C134.492 154.599 139.102 147.46 146.058 143.392V140.51C146.058 134.069 150.099 128.204 156.113 125.914C159.209 124.736 159.156 123.606 159.112 122.698C159.028 120.877 158.523 120.214 155.736 117.302C151.349 112.724 144.723 105.808 146.166 91.6852C146.662 86.1533 148.484 81.3642 151.58 77.4689C154.414 73.9025 158.288 71.2303 162.833 69.6987C163.479 62.9311 166.321 56.3283 171.092 50.5417C174.485 46.4254 178.74 42.98 183.401 40.5779C188.603 37.8958 194.121 36.5358 199.799 36.5358C200.74 36.5358 201.69 36.5751 202.635 36.6524C205.797 28.7088 211.423 22.1935 218.963 17.7614C226.541 13.3072 231.917 8.19447 235.093 4.69003C237.77 1.73448 241.593 0.0395508 245.579 0.0395508C249.565 0.0395508 253.388 1.73448 256.065 4.69025C259.241 8.19469 264.617 13.307 272.195 17.7614C279.735 22.1937 285.361 28.709 288.525 36.6524C289.468 36.5748 290.418 36.5358 291.359 36.5358C297.037 36.5358 302.555 37.8961 307.757 40.5784C312.418 42.9804 316.673 46.426 320.066 50.5424C324.834 56.3288 327.677 62.9311 328.325 69.6985C332.871 71.2303 336.747 73.9021 339.578 77.4687C342.674 81.3642 344.496 86.1533 344.994 91.7033C346.435 105.808 339.809 112.724 335.424 117.301C332.635 120.213 332.13 120.877 332.046 122.698C332.002 123.606 331.949 124.736 335.045 125.915C341.061 128.204 345.102 134.069 345.102 140.51V143.39C348.465 145.354 351.272 148.002 353.456 151.277C355.796 154.785 357.362 158.929 358.116 163.601C358.167 163.92 358.215 164.246 358.259 164.572C358.488 164.832 358.627 165.174 358.627 165.549V341.692C358.627 356.12 346.887 367.858 332.458 367.858ZM199.799 39.487C194.595 39.487 189.533 40.7366 184.752 43.2008C180.446 45.421 176.508 48.6088 173.368 52.4187C168.759 58.0116 166.108 64.4017 165.698 70.8985C165.66 71.5172 165.237 72.0454 164.645 72.221C155.657 74.8743 149.991 82.0715 149.103 91.967C147.799 104.751 153.616 110.825 157.864 115.26C160.747 118.269 161.921 119.607 162.06 122.559C162.152 124.502 161.679 126.953 157.164 128.672C152.285 130.529 149.009 135.286 149.009 140.51V144.256C149.009 144.798 148.711 145.296 148.233 145.554C141.574 149.141 137.33 155.545 135.957 164.07C135.12 169.264 135.609 173.966 135.858 175.749C135.867 175.815 135.871 175.883 135.871 175.951V341.692C135.871 354.494 146.285 364.908 159.087 364.908H332.458C345.261 364.908 355.675 354.494 355.675 341.692V166.382C355.542 166.188 355.454 165.961 355.428 165.714C355.364 165.161 355.289 164.608 355.201 164.07C353.828 155.543 349.584 149.141 342.925 145.554C342.449 145.296 342.149 144.798 342.149 144.256V140.51C342.149 135.286 338.873 130.529 333.997 128.672C329.482 126.954 329.006 124.503 329.098 122.559C329.237 119.607 330.411 118.269 333.294 115.261C337.542 110.825 343.361 104.751 342.057 91.9851C341.167 82.0713 335.504 74.874 326.516 72.2208C325.921 72.0452 325.498 71.517 325.46 70.8983C325.05 64.4017 322.4 58.0118 317.79 52.4193C314.648 48.6088 310.712 45.4214 306.407 43.2012C301.625 40.7366 296.564 39.487 291.359 39.487C290.149 39.487 288.924 39.5575 287.717 39.6968C287.659 39.7034 287.602 39.7067 287.545 39.7067C286.932 39.7069 286.375 39.3235 286.161 38.7363C283.285 30.8464 278.083 24.6453 270.701 20.3056C262.802 15.6623 257.194 10.3286 253.88 6.67186C251.76 4.33218 248.734 2.99047 245.579 2.99047C242.424 2.99047 239.4 4.33196 237.278 6.67164C233.967 10.3286 228.359 15.6626 220.459 20.3056C213.075 24.6453 207.873 30.8464 204.997 38.7365C204.784 39.3237 204.224 39.7067 203.611 39.7067C203.556 39.7067 203.499 39.7036 203.442 39.697C202.234 39.5575 201.009 39.487 199.799 39.487Z" fill="#FF8C40"/>
<path fill-rule="evenodd" clip-rule="evenodd" d="M103.187 97.417L107.056 98.3755C107.834 98.5672 107.834 99.6734 107.056 99.8673L103.187 100.824C101.382 101.271 99.9722 102.681 99.5271 104.486L97.0658 114.424C96.8741 115.204 95.7657 115.204 95.574 114.424L93.1127 104.486C92.6676 102.681 91.2574 101.271 89.4527 100.824L85.5834 99.8673C84.8055 99.6734 84.8055 98.5672 85.5834 98.3755L89.4527 97.417C91.2574 96.9697 92.6676 95.5608 93.1127 93.7559L95.574 83.8179C95.7657 83.0392 96.8741 83.0392 97.0658 83.8179L99.5271 93.7559C99.9722 95.5608 101.382 96.9697 103.187 97.417Z" fill="#F2F2F2"/>
<path fill-rule="evenodd" clip-rule="evenodd" d="M122.839 104.613L124.93 105.131C125.351 105.234 125.351 105.834 124.93 105.937L122.839 106.455C121.862 106.697 121.1 107.46 120.858 108.436L119.527 113.812C119.423 114.233 118.824 114.233 118.72 113.812L117.389 108.436C117.147 107.46 116.385 106.697 115.408 106.455L113.317 105.937C112.894 105.834 112.894 105.234 113.317 105.131L115.408 104.613C116.385 104.37 117.147 103.608 117.389 102.632L118.72 97.2575C118.824 96.8344 119.423 96.8344 119.527 97.2575L120.858 102.632C121.1 103.608 121.862 104.37 122.839 104.613Z" fill="#F2F2F2"/>
<path fill-rule="evenodd" clip-rule="evenodd" d="M99.837 132.611L101.93 133.129C102.351 133.235 102.351 133.832 101.93 133.938L99.837 134.455C98.8608 134.698 98.0984 135.458 97.8582 136.436L96.5273 141.811C96.4215 142.232 95.8244 142.232 95.7186 141.811L94.3877 136.436C94.1475 135.458 93.3851 134.698 92.409 134.455L90.3157 133.938C89.8948 133.832 89.8948 133.235 90.3157 133.129L92.409 132.611C93.3851 132.371 94.1475 131.609 94.3877 130.632L95.7186 125.256C95.8244 124.835 96.4215 124.835 96.5273 125.256L97.8582 130.632C98.0984 131.609 98.8608 132.371 99.837 132.611Z" fill="#F2F2F2"/>
<path fill-rule="evenodd" clip-rule="evenodd" d="M114.239 132.801C114.239 131.906 113.514 131.181 112.62 131.181C111.725 131.181 111 131.906 111 132.801C111 133.696 111.725 134.421 112.62 134.421C113.514 134.421 114.239 133.696 114.239 132.801Z" fill="#F2F2F2"/>
<path fill-rule="evenodd" clip-rule="evenodd" d="M120.237 85.5591C120.237 84.6651 119.514 83.9402 118.62 83.9402C117.725 83.9402 117 84.6651 117 85.5591C117 86.4533 117.725 87.1791 118.62 87.1791C119.514 87.1791 120.237 86.4533 120.237 85.5591Z" fill="#F2F2F2"/>
<path fill-rule="evenodd" clip-rule="evenodd" d="M332.701 143.89C332.701 143.89 305.836 237.178 315.007 357.171L280.873 356.078C280.873 356.078 291.534 201.146 323.48 143.595L332.701 143.89Z" fill="#7B5028"/>
<mask id="mask0_42_3851" style="mask-type:luminance" maskUnits="userSpaceOnUse" x="280" y="143" width="53" height="215">
<path d="M332.701 143.89C332.701 143.89 305.836 237.178 315.007 357.171L280.873 356.078C280.873 356.078 291.534 201.146 323.48 143.595L332.701 143.89Z" fill="white"/>
</mask>
<g mask="url(#mask0_42_3851)">
<path fill-rule="evenodd" clip-rule="evenodd" d="M360.822 160.5C360.763 160.5 360.705 160.496 360.646 160.487L275.501 147.409C274.868 147.312 274.434 146.722 274.531 146.087C274.628 145.455 275.219 145.021 275.851 145.118L360.996 158.193C361.629 158.292 362.063 158.883 361.966 159.515C361.878 160.088 361.384 160.5 360.822 160.5Z" fill="#57351E"/>
</g>
<mask id="mask1_42_3851" style="mask-type:luminance" maskUnits="userSpaceOnUse" x="280" y="143" width="53" height="215">
<path d="M332.701 143.89C332.701 143.89 305.836 237.178 315.007 357.171L280.873 356.078C280.873 356.078 291.534 201.146 323.48 143.595L332.701 143.89Z" fill="white"/>
</mask>
<g mask="url(#mask1_42_3851)">
<path fill-rule="evenodd" clip-rule="evenodd" d="M358.69 174.396C358.63 174.396 358.571 174.389 358.511 174.38L273.366 161.305C272.733 161.208 272.299 160.615 272.396 159.983C272.493 159.35 273.084 158.916 273.718 159.013L358.864 172.089C359.496 172.186 359.93 172.778 359.833 173.411C359.745 173.984 359.252 174.396 358.69 174.396Z" fill="#57351E"/>
</g>
<mask id="mask2_42_3851" style="mask-type:luminance" maskUnits="userSpaceOnUse" x="280" y="143" width="53" height="215">
<path d="M332.701 143.89C332.701 143.89 305.836 237.178 315.007 357.171L280.873 356.078C280.873 356.078 291.534 201.146 323.48 143.595L332.701 143.89Z" fill="white"/>
</mask>
<g mask="url(#mask2_42_3851)">
<path fill-rule="evenodd" clip-rule="evenodd" d="M356.554 188.289C356.497 188.289 356.437 188.284 356.378 188.276L271.233 175.2C270.6 175.103 270.166 174.51 270.263 173.878C270.36 173.245 270.951 172.809 271.585 172.908L356.728 185.984C357.363 186.081 357.797 186.674 357.7 187.306C357.612 187.879 357.116 188.289 356.554 188.289Z" fill="#57351E"/>
</g>
<mask id="mask3_42_3851" style="mask-type:luminance" maskUnits="userSpaceOnUse" x="280" y="143" width="53" height="215">
<path d="M332.701 143.89C332.701 143.89 305.836 237.178 315.007 357.171L280.873 356.078C280.873 356.078 291.534 201.146 323.48 143.595L332.701 143.89Z" fill="white"/>
</mask>
<g mask="url(#mask3_42_3851)">
<path fill-rule="evenodd" clip-rule="evenodd" d="M354.421 202.184C354.362 202.184 354.302 202.18 354.243 202.171L269.1 189.093C268.465 188.996 268.031 188.406 268.128 187.773C268.225 187.139 268.817 186.704 269.45 186.801L354.595 199.879C355.228 199.976 355.662 200.567 355.565 201.201C355.477 201.774 354.983 202.184 354.421 202.184Z" fill="#57351E"/>
</g>
<mask id="mask4_42_3851" style="mask-type:luminance" maskUnits="userSpaceOnUse" x="280" y="143" width="53" height="215">
<path d="M332.701 143.89C332.701 143.89 305.836 237.178 315.007 357.171L280.873 356.078C280.873 356.078 291.534 201.146 323.48 143.595L332.701 143.89Z" fill="white"/>
</mask>
<g mask="url(#mask4_42_3851)">
<path fill-rule="evenodd" clip-rule="evenodd" d="M352.286 216.079C352.229 216.079 352.169 216.075 352.11 216.066L266.965 202.988C266.332 202.891 265.898 202.299 265.995 201.666C266.092 201.034 266.682 200.6 267.317 200.697L352.462 213.772C353.095 213.871 353.529 214.462 353.432 215.094C353.344 215.667 352.85 216.079 352.286 216.079Z" fill="#57351E"/>
</g>
<mask id="mask5_42_3851" style="mask-type:luminance" maskUnits="userSpaceOnUse" x="280" y="143" width="53" height="215">
<path d="M332.701 143.89C332.701 143.89 305.836 237.178 315.007 357.171L280.873 356.078C280.873 356.078 291.534 201.146 323.48 143.595L332.701 143.89Z" fill="white"/>
</mask>
<g mask="url(#mask5_42_3851)">
<path fill-rule="evenodd" clip-rule="evenodd" d="M350.154 229.972C350.094 229.972 350.037 229.968 349.975 229.959L264.832 216.884C264.2 216.787 263.763 216.194 263.86 215.561C263.959 214.929 264.548 214.495 265.182 214.592L350.328 227.667C350.96 227.764 351.394 228.357 351.297 228.99C351.209 229.562 350.715 229.972 350.154 229.972Z" fill="#57351E"/>
</g>
<mask id="mask6_42_3851" style="mask-type:luminance" maskUnits="userSpaceOnUse" x="280" y="143" width="53" height="215">
<path d="M332.701 143.89C332.701 143.89 305.836 237.178 315.007 357.171L280.873 356.078C280.873 356.078 291.534 201.146 323.48 143.595L332.701 143.89Z" fill="white"/>
</mask>
<g mask="url(#mask6_42_3851)">
<path fill-rule="evenodd" clip-rule="evenodd" d="M348.021 243.868C347.961 243.868 347.902 243.863 347.842 243.854L262.697 230.779C262.065 230.682 261.63 230.089 261.727 229.457C261.824 228.824 262.415 228.39 263.05 228.487L348.195 241.563C348.827 241.66 349.261 242.252 349.164 242.885C349.076 243.458 348.583 243.868 348.021 243.868Z" fill="#57351E"/>
</g>
<mask id="mask7_42_3851" style="mask-type:luminance" maskUnits="userSpaceOnUse" x="280" y="143" width="53" height="215">
<path d="M332.701 143.89C332.701 143.89 305.836 237.178 315.007 357.171L280.873 356.078C280.873 356.078 291.534 201.146 323.48 143.595L332.701 143.89Z" fill="white"/>
</mask>
<g mask="url(#mask7_42_3851)">
<path fill-rule="evenodd" clip-rule="evenodd" d="M345.885 257.763C345.828 257.763 345.768 257.758 345.709 257.75L260.564 244.672C259.931 244.575 259.497 243.984 259.594 243.352C259.691 242.717 260.282 242.283 260.916 242.38L346.059 255.458C346.692 255.555 347.128 256.145 347.029 256.78C346.941 257.353 346.447 257.763 345.885 257.763Z" fill="#57351E"/>
</g>
<mask id="mask8_42_3851" style="mask-type:luminance" maskUnits="userSpaceOnUse" x="280" y="143" width="53" height="215">
<path d="M332.701 143.89C332.701 143.89 305.836 237.178 315.007 357.171L280.873 356.078C280.873 356.078 291.534 201.146 323.48 143.595L332.701 143.89Z" fill="white"/>
</mask>
<g mask="url(#mask8_42_3851)">
<path fill-rule="evenodd" clip-rule="evenodd" d="M343.752 271.658C343.693 271.658 343.633 271.654 343.574 271.645L258.428 258.567C257.796 258.47 257.362 257.88 257.459 257.245C257.556 256.613 258.149 256.179 258.781 256.276L343.926 269.351C344.559 269.45 344.993 270.041 344.896 270.673C344.808 271.248 344.314 271.658 343.752 271.658Z" fill="#57351E"/>
</g>
<mask id="mask9_42_3851" style="mask-type:luminance" maskUnits="userSpaceOnUse" x="280" y="143" width="53" height="215">
<path d="M332.701 143.89C332.701 143.89 305.836 237.178 315.007 357.171L280.873 356.078C280.873 356.078 291.534 201.146 323.48 143.595L332.701 143.89Z" fill="white"/>
</mask>
<g mask="url(#mask9_42_3851)">
<path fill-rule="evenodd" clip-rule="evenodd" d="M341.617 285.553C341.559 285.553 341.5 285.547 341.44 285.538L256.295 272.462C255.663 272.365 255.229 271.773 255.326 271.14C255.423 270.508 256.013 270.074 256.648 270.171L341.791 283.246C342.425 283.343 342.859 283.936 342.763 284.568C342.674 285.141 342.181 285.553 341.617 285.553Z" fill="#57351E"/>
</g>
<mask id="mask10_42_3851" style="mask-type:luminance" maskUnits="userSpaceOnUse" x="280" y="143" width="53" height="215">
<path d="M332.701 143.89C332.701 143.89 305.836 237.178 315.007 357.171L280.873 356.078C280.873 356.078 291.534 201.146 323.48 143.595L332.701 143.89Z" fill="white"/>
</mask>
<g mask="url(#mask10_42_3851)">
<path fill-rule="evenodd" clip-rule="evenodd" d="M339.484 299.446C339.425 299.446 339.365 299.442 339.306 299.433L254.163 286.358C253.528 286.261 253.094 285.668 253.191 285.036C253.29 284.403 253.88 283.969 254.513 284.066L339.658 297.142C340.291 297.239 340.725 297.831 340.628 298.464C340.54 299.037 340.046 299.446 339.484 299.446Z" fill="#57351E"/>
</g>
<mask id="mask11_42_3851" style="mask-type:luminance" maskUnits="userSpaceOnUse" x="280" y="143" width="53" height="215">
<path d="M332.701 143.89C332.701 143.89 305.836 237.178 315.007 357.171L280.873 356.078C280.873 356.078 291.534 201.146 323.48 143.595L332.701 143.89Z" fill="white"/>
</mask>
<g mask="url(#mask11_42_3851)">
<path fill-rule="evenodd" clip-rule="evenodd" d="M337.349 313.342C337.291 313.342 337.232 313.337 337.172 313.328L252.027 300.251C251.395 300.154 250.961 299.563 251.057 298.931C251.154 298.296 251.745 297.864 252.38 297.959L337.525 311.037C338.157 311.134 338.591 311.724 338.494 312.359C338.406 312.932 337.913 313.342 337.349 313.342Z" fill="#57351E"/>
</g>
<mask id="mask12_42_3851" style="mask-type:luminance" maskUnits="userSpaceOnUse" x="280" y="143" width="53" height="215">
<path d="M332.701 143.89C332.701 143.89 305.836 237.178 315.007 357.171L280.873 356.078C280.873 356.078 291.534 201.146 323.48 143.595L332.701 143.89Z" fill="white"/>
</mask>
<g mask="url(#mask12_42_3851)">
<path fill-rule="evenodd" clip-rule="evenodd" d="M335.216 327.237C335.157 327.237 335.097 327.232 335.038 327.224L249.894 314.146C249.262 314.049 248.826 313.458 248.923 312.824C249.022 312.191 249.612 311.757 250.245 311.854L335.39 324.93C336.022 325.027 336.457 325.619 336.36 326.252C336.271 326.825 335.778 327.237 335.216 327.237Z" fill="#57351E"/>
</g>
<mask id="mask13_42_3851" style="mask-type:luminance" maskUnits="userSpaceOnUse" x="280" y="143" width="53" height="215">
<path d="M332.701 143.89C332.701 143.89 305.836 237.178 315.007 357.171L280.873 356.078C280.873 356.078 291.534 201.146 323.48 143.595L332.701 143.89Z" fill="white"/>
</mask>
<g mask="url(#mask13_42_3851)">
<path fill-rule="evenodd" clip-rule="evenodd" d="M333.081 341.13C333.023 341.13 332.964 341.125 332.904 341.117L247.759 328.041C247.127 327.944 246.692 327.351 246.789 326.719C246.886 326.087 247.477 325.652 248.112 325.749L333.257 338.825C333.889 338.922 334.323 339.515 334.226 340.147C334.138 340.72 333.645 341.13 333.081 341.13Z" fill="#57351E"/>
</g>
<mask id="mask14_42_3851" style="mask-type:luminance" maskUnits="userSpaceOnUse" x="280" y="143" width="53" height="215">
<path d="M332.701 143.89C332.701 143.89 305.836 237.178 315.007 357.171L280.873 356.078C280.873 356.078 291.534 201.146 323.48 143.595L332.701 143.89Z" fill="white"/>
</mask>
<g mask="url(#mask14_42_3851)">
<path fill-rule="evenodd" clip-rule="evenodd" d="M330.947 355.025C330.89 355.025 330.83 355.021 330.771 355.012L245.626 341.936C244.993 341.839 244.559 341.247 244.656 340.614C244.753 339.982 245.344 339.548 245.978 339.645L331.121 352.72C331.756 352.817 332.19 353.41 332.093 354.042C332.005 354.615 331.509 355.025 330.947 355.025Z" fill="#57351E"/>
</g>
<mask id="mask15_42_3851" style="mask-type:luminance" maskUnits="userSpaceOnUse" x="280" y="143" width="53" height="215">
<path d="M332.701 143.89C332.701 143.89 305.836 237.178 315.007 357.171L280.873 356.078C280.873 356.078 291.534 201.146 323.48 143.595L332.701 143.89Z" fill="white"/>
</mask>
<g mask="url(#mask15_42_3851)">
<path fill-rule="evenodd" clip-rule="evenodd" d="M328.815 368.921C328.755 368.921 328.696 368.916 328.636 368.907L243.493 355.83C242.858 355.733 242.424 355.142 242.521 354.507C242.618 353.875 243.211 353.441 243.843 353.538L328.989 366.616C329.621 366.713 330.055 367.303 329.958 367.938C329.87 368.511 329.377 368.921 328.815 368.921Z" fill="#57351E"/>
</g>
<path fill-rule="evenodd" clip-rule="evenodd" d="M329.733 143.796C329.539 144.223 329.346 144.651 329.156 145.078C327.351 149.126 325.699 153.242 324.185 157.407C323.431 159.482 322.711 161.571 322.025 163.671C321.671 164.753 321.325 165.839 320.988 166.928C320.82 167.47 320.655 168.016 320.49 168.561C320.43 168.757 320.373 168.955 320.313 169.151C317.87 177.619 315.876 186.204 314.252 194.868C310.957 212.441 309.091 230.241 307.449 248.032C305.806 265.827 304.402 283.652 302.04 301.37C301.209 307.599 300.268 313.765 299.761 320.031C299.279 326.005 298.836 331.987 297.966 337.919C297.062 344.074 295.696 350.691 292.983 356.466L315.007 357.171C305.836 237.178 332.701 143.893 332.701 143.893L329.733 143.796Z" fill="#57351E"/>
<path fill-rule="evenodd" clip-rule="evenodd" d="M327.77 148.787C327.77 148.787 362.356 73.4848 294.063 43.7991C294.063 43.7991 292.688 51.0702 299.64 57.2102C306.594 63.35 300.663 68.0146 303.082 73.5917C304.913 77.8109 311.759 78.6762 311.953 85.9432C312.158 93.6964 307.145 95.7996 312.572 101.8C318 107.8 320.426 110.715 319.54 118.445C318.771 125.162 316.182 128.707 319.004 133.274C323.564 140.649 327.724 143.271 327.77 148.787Z" fill="#4E8946"/>
<mask id="mask16_42_3851" style="mask-type:luminance" maskUnits="userSpaceOnUse" x="293" y="43" width="44" height="106">
<path d="M327.77 148.787C327.77 148.787 362.358 73.4848 294.063 43.7991C294.063 43.7991 292.688 51.0702 299.64 57.21C306.594 63.35 300.663 68.0146 303.082 73.5917C304.913 77.8109 311.759 78.6762 311.953 85.9431C312.158 93.6964 307.145 95.7996 312.572 101.8C318 107.8 320.426 110.715 319.54 118.445C318.771 125.162 316.182 128.707 319.004 133.274C323.564 140.649 327.724 143.271 327.77 148.787Z" fill="white"/>
</mask>
<g mask="url(#mask16_42_3851)">
<path fill-rule="evenodd" clip-rule="evenodd" d="M332.208 57.7817C332.177 57.7817 332.144 57.7804 332.113 57.7776L282.733 53.7348C282.094 53.6826 281.618 53.1229 281.671 52.4848C281.724 51.8466 282.281 51.3707 282.92 51.424L332.303 55.4668C332.94 55.519 333.416 56.0787 333.363 56.7168C333.314 57.3228 332.805 57.7817 332.208 57.7817Z" fill="#3E6D37"/>
</g>
<mask id="mask17_42_3851" style="mask-type:luminance" maskUnits="userSpaceOnUse" x="293" y="43" width="44" height="106">
<path d="M327.77 148.787C327.77 148.787 362.358 73.4848 294.063 43.7991C294.063 43.7991 292.688 51.0702 299.64 57.21C306.594 63.35 300.663 68.0146 303.082 73.5917C304.913 77.8109 311.759 78.6762 311.953 85.9431C312.158 93.6964 307.145 95.7996 312.572 101.8C318 107.8 320.426 110.715 319.54 118.445C318.771 125.162 316.182 128.707 319.004 133.274C323.564 140.649 327.724 143.271 327.77 148.787Z" fill="white"/>
</mask>
<g mask="url(#mask17_42_3851)">
<path fill-rule="evenodd" clip-rule="evenodd" d="M333.969 68.5491C333.938 68.5491 333.907 68.5478 333.874 68.5451L284.494 64.5026C283.855 64.4504 283.381 63.8907 283.432 63.2526C283.485 62.6144 284.042 62.1383 284.684 62.1916L334.064 66.2343C334.701 66.2866 335.177 66.8462 335.124 67.4844C335.075 68.0903 334.566 68.5491 333.969 68.5491Z" fill="#3E6D37"/>
</g>
<mask id="mask18_42_3851" style="mask-type:luminance" maskUnits="userSpaceOnUse" x="293" y="43" width="44" height="106">
<path d="M327.77 148.787C327.77 148.787 362.358 73.4848 294.063 43.7991C294.063 43.7991 292.688 51.0702 299.64 57.21C306.594 63.35 300.663 68.0146 303.082 73.5917C304.913 77.8109 311.759 78.6762 311.953 85.9431C312.158 93.6964 307.145 95.7996 312.572 101.8C318 107.8 320.426 110.715 319.54 118.445C318.771 125.162 316.182 128.707 319.004 133.274C323.564 140.649 327.724 143.271 327.77 148.787Z" fill="white"/>
</mask>
<g mask="url(#mask18_42_3851)">
<path fill-rule="evenodd" clip-rule="evenodd" d="M335.732 79.3169C335.699 79.3169 335.668 79.3156 335.635 79.3127L286.254 75.27C285.615 75.2177 285.142 74.6581 285.194 74.0199C285.245 73.3818 285.803 72.9058 286.444 72.9592L335.824 77.0021C336.463 77.0541 336.937 77.6138 336.884 78.252C336.836 78.8579 336.329 79.3169 335.732 79.3169Z" fill="#3E6D37"/>
</g>
<mask id="mask19_42_3851" style="mask-type:luminance" maskUnits="userSpaceOnUse" x="293" y="43" width="44" height="106">
<path d="M327.77 148.787C327.77 148.787 362.358 73.4848 294.063 43.7991C294.063 43.7991 292.688 51.0702 299.64 57.21C306.594 63.35 300.663 68.0146 303.082 73.5917C304.913 77.8109 311.759 78.6762 311.953 85.9431C312.158 93.6964 307.145 95.7996 312.572 101.8C318 107.8 320.426 110.715 319.54 118.445C318.771 125.162 316.182 128.707 319.004 133.274C323.564 140.649 327.724 143.271 327.77 148.787Z" fill="white"/>
</mask>
<g mask="url(#mask19_42_3851)">
<path fill-rule="evenodd" clip-rule="evenodd" d="M337.492 90.0846C337.459 90.0846 337.428 90.083 337.395 90.0806L288.015 86.0376C287.378 85.9856 286.902 85.4259 286.955 84.7878C287.005 84.1497 287.563 83.6733 288.204 83.727L337.584 87.7696C338.223 87.8218 338.697 88.3815 338.647 89.0196C338.596 89.6256 338.089 90.0846 337.492 90.0846Z" fill="#3E6D37"/>
</g>
<mask id="mask20_42_3851" style="mask-type:luminance" maskUnits="userSpaceOnUse" x="293" y="43" width="44" height="106">
<path d="M327.77 148.787C327.77 148.787 362.358 73.4848 294.063 43.7991C294.063 43.7991 292.688 51.0702 299.64 57.21C306.594 63.35 300.663 68.0146 303.082 73.5917C304.913 77.8109 311.759 78.6762 311.953 85.9431C312.158 93.6964 307.145 95.7996 312.572 101.8C318 107.8 320.426 110.715 319.54 118.445C318.771 125.162 316.182 128.707 319.004 133.274C323.564 140.649 327.724 143.271 327.77 148.787Z" fill="white"/>
</mask>
<g mask="url(#mask20_42_3851)">
<path fill-rule="evenodd" clip-rule="evenodd" d="M339.253 100.852C339.222 100.852 339.189 100.851 339.156 100.848L289.775 96.8054C289.139 96.7532 288.663 96.1935 288.715 95.5553C288.768 94.9172 289.324 94.441 289.965 94.4946L339.345 98.5373C339.984 98.5893 340.46 99.149 340.407 99.7872C340.357 100.393 339.85 100.852 339.253 100.852Z" fill="#3E6D37"/>
</g>
<mask id="mask21_42_3851" style="mask-type:luminance" maskUnits="userSpaceOnUse" x="293" y="43" width="44" height="106">
<path d="M327.77 148.787C327.77 148.787 362.358 73.4848 294.063 43.7991C294.063 43.7991 292.688 51.0702 299.64 57.21C306.594 63.35 300.663 68.0146 303.082 73.5917C304.913 77.8109 311.759 78.6762 311.953 85.9431C312.158 93.6964 307.145 95.7996 312.572 101.8C318 107.8 320.426 110.715 319.54 118.445C318.771 125.162 316.182 128.707 319.004 133.274C323.564 140.649 327.724 143.271 327.77 148.787Z" fill="white"/>
</mask>
<g mask="url(#mask21_42_3851)">
<path fill-rule="evenodd" clip-rule="evenodd" d="M341.013 111.62C340.983 111.62 340.949 111.618 340.919 111.616L291.538 107.573C290.899 107.521 290.423 106.961 290.476 106.323C290.529 105.685 291.089 105.209 291.726 105.262L341.108 109.305C341.745 109.357 342.221 109.917 342.168 110.555C342.12 111.161 341.611 111.62 341.013 111.62Z" fill="#3E6D37"/>
</g>
<mask id="mask22_42_3851" style="mask-type:luminance" maskUnits="userSpaceOnUse" x="293" y="43" width="44" height="106">
<path d="M327.77 148.787C327.77 148.787 362.358 73.4848 294.063 43.7991C294.063 43.7991 292.688 51.0702 299.64 57.21C306.594 63.35 300.663 68.0146 303.082 73.5917C304.913 77.8109 311.759 78.6762 311.953 85.9431C312.158 93.6964 307.145 95.7996 312.572 101.8C318 107.8 320.426 110.715 319.54 118.445C318.771 125.162 316.182 128.707 319.004 133.274C323.564 140.649 327.724 143.271 327.77 148.787Z" fill="white"/>
</mask>
<g mask="url(#mask22_42_3851)">
<path fill-rule="evenodd" clip-rule="evenodd" d="M342.774 122.387C342.743 122.387 342.712 122.386 342.679 122.384L293.299 118.341C292.66 118.289 292.186 117.729 292.237 117.091C292.29 116.453 292.849 115.978 293.488 116.03L342.869 120.073C343.505 120.125 343.981 120.685 343.928 121.323C343.88 121.929 343.373 122.387 342.774 122.387Z" fill="#3E6D37"/>
</g>
<mask id="mask23_42_3851" style="mask-type:luminance" maskUnits="userSpaceOnUse" x="293" y="43" width="44" height="106">
<path d="M327.77 148.787C327.77 148.787 362.358 73.4848 294.063 43.7991C294.063 43.7991 292.688 51.0702 299.64 57.21C306.594 63.35 300.663 68.0146 303.082 73.5917C304.913 77.8109 311.759 78.6762 311.953 85.9431C312.158 93.6964 307.145 95.7996 312.572 101.8C318 107.8 320.426 110.715 319.54 118.445C318.771 125.162 316.182 128.707 319.004 133.274C323.564 140.649 327.724 143.271 327.77 148.787Z" fill="white"/>
</mask>
<g mask="url(#mask23_42_3851)">
<path fill-rule="evenodd" clip-rule="evenodd" d="M344.536 133.155C344.503 133.155 344.472 133.153 344.439 133.15L295.059 129.108C294.42 129.056 293.946 128.496 293.999 127.858C294.05 127.22 294.61 126.744 295.249 126.797L344.629 130.84C345.268 130.892 345.742 131.452 345.689 132.091C345.64 132.697 345.133 133.155 344.536 133.155Z" fill="#3E6D37"/>
</g>
<mask id="mask24_42_3851" style="mask-type:luminance" maskUnits="userSpaceOnUse" x="293" y="43" width="44" height="106">
<path d="M327.77 148.787C327.77 148.787 362.358 73.4848 294.063 43.7991C294.063 43.7991 292.688 51.0702 299.64 57.21C306.594 63.35 300.663 68.0146 303.082 73.5917C304.913 77.8109 311.759 78.6762 311.953 85.9431C312.158 93.6964 307.145 95.7996 312.572 101.8C318 107.8 320.426 110.715 319.54 118.445C318.771 125.162 316.182 128.707 319.004 133.274C323.564 140.649 327.724 143.271 327.77 148.787Z" fill="white"/>
</mask>
<g mask="url(#mask24_42_3851)">
<path fill-rule="evenodd" clip-rule="evenodd" d="M346.298 143.924C346.265 143.924 346.234 143.921 346.201 143.919L296.82 139.876C296.183 139.823 295.707 139.263 295.76 138.626C295.811 137.987 296.371 137.514 297.01 137.564L346.39 141.608C347.029 141.661 347.503 142.22 347.452 142.857C347.402 143.463 346.895 143.924 346.298 143.924Z" fill="#3E6D37"/>
</g>
<path fill-rule="evenodd" clip-rule="evenodd" d="M327.999 148.822C327.999 148.822 338.15 71.9029 407.071 82.4442C407.071 82.4442 404.535 88.8919 395.963 90.2887C387.389 91.6857 389.763 98.34 385.065 101.553C381.51 103.983 375.654 101.253 371.877 106.915C367.847 112.956 370.768 117.124 363.475 119.171C356.183 121.218 352.808 122.318 349.652 128.884C346.911 134.59 347.195 138.69 342.68 140.903C335.389 144.472 330.786 144.474 327.999 148.822Z" fill="#4E8946"/>
<path fill-rule="evenodd" clip-rule="evenodd" d="M326.54 148.333C326.54 148.333 408.734 137.809 416.671 211.853C416.671 211.853 409.321 210.994 405.537 202.526C401.754 194.055 395.531 198.321 390.932 194.348C387.451 191.341 388.669 184.547 381.792 182.194C374.455 179.682 370.949 183.84 366.844 176.868C362.739 169.896 360.681 166.71 353.039 165.247C346.4 163.975 342.244 165.388 338.727 161.329C333.051 154.776 331.79 150.023 326.54 148.333Z" fill="#4E8946"/>
<path fill-rule="evenodd" clip-rule="evenodd" d="M415.568 205.535C415.421 205.535 415.269 205.507 415.121 205.445C414.936 205.368 410.564 203.473 408.521 197.537C406.915 192.876 404.291 192.57 400.97 192.184C398.789 191.931 396.316 191.642 394.252 189.86C392.687 188.509 391.962 186.572 391.264 184.699C390.204 181.87 389.206 179.197 385.497 177.926C382.93 177.049 380.845 177.042 379.006 177.038C375.692 177.029 372.829 177.022 369.925 172.091C365.694 164.91 363.876 162.358 356.9 161.02C354.895 160.637 353.086 160.503 351.49 160.384C347.826 160.113 344.664 159.879 341.93 156.724C339.966 154.458 338.541 152.427 337.28 150.637C334.922 147.284 333.365 145.069 330.264 144.071C329.654 143.875 329.319 143.223 329.515 142.612C329.711 142.002 330.363 141.667 330.974 141.863C334.814 143.099 336.74 145.838 339.177 149.302C340.405 151.05 341.797 153.028 343.684 155.205C345.788 157.636 348.126 157.81 351.662 158.072C353.319 158.195 355.201 158.334 357.336 158.744C365.359 160.28 367.607 163.585 371.921 170.914C374.156 174.706 375.881 174.711 379.012 174.72C380.931 174.724 383.318 174.731 386.246 175.733C390.993 177.357 392.348 180.977 393.434 183.886C394.088 185.633 394.653 187.141 395.768 188.106C397.292 189.423 399.207 189.646 401.237 189.882C404.703 190.285 408.634 190.741 410.714 196.783C412.404 201.693 415.879 203.246 416.024 203.31C416.61 203.563 416.884 204.242 416.635 204.828C416.445 205.269 416.02 205.535 415.568 205.535Z" fill="#3E6D37"/>
<path fill-rule="evenodd" clip-rule="evenodd" d="M327.327 148.306C327.327 148.306 319.427 65.8182 245.46 74.4389C245.46 74.4389 247.922 81.4178 257.02 83.2361C266.116 85.0542 263.329 92.066 268.22 95.6744C271.922 98.4043 278.277 95.7143 282.094 101.902C286.166 108.504 282.885 112.84 290.592 115.303C298.298 117.767 301.859 119.07 304.975 126.199C307.683 132.395 307.224 136.76 311.96 139.292C319.604 143.381 324.52 143.56 327.327 148.306Z" fill="#3E6D37"/>
<path fill-rule="evenodd" clip-rule="evenodd" d="M327.999 148.822C327.999 148.822 270.615 89.0392 217.963 141.698C217.963 141.698 224.223 145.645 232.486 141.425C240.747 137.205 242.913 144.433 248.988 144.228C253.585 144.071 256.899 138.018 263.732 140.502C271.021 143.152 271.14 148.588 278.711 145.739C286.285 142.888 289.885 141.7 296.751 145.356C302.72 148.533 305.069 152.242 310.353 151.29C318.885 149.752 322.849 146.843 327.999 148.822Z" fill="#4E8946"/>
<mask id="mask25_42_3851" style="mask-type:luminance" maskUnits="userSpaceOnUse" x="217" y="120" width="111" height="32">
<path d="M327.999 148.822C327.999 148.822 270.615 89.0392 217.963 141.698C217.963 141.698 224.223 145.645 232.486 141.425C237.495 138.867 240.262 140.517 243.019 142.165C244.81 143.238 246.595 144.309 248.988 144.228C253.585 144.071 256.899 138.018 263.732 140.502C271.021 143.152 271.14 148.588 278.711 145.737C286.285 142.888 289.885 141.7 296.751 145.356C302.72 148.533 305.069 152.242 310.353 151.29C318.885 149.752 322.849 146.843 327.999 148.822Z" fill="white"/>
</mask>
<g mask="url(#mask25_42_3851)">
<path fill-rule="evenodd" clip-rule="evenodd" d="M222.014 156.53C221.842 156.53 221.668 156.492 221.503 156.411C220.928 156.129 220.692 155.435 220.974 154.859L242.837 110.398C243.119 109.823 243.816 109.587 244.388 109.869C244.964 110.152 245.199 110.846 244.917 111.421L223.054 155.882C222.854 156.292 222.442 156.53 222.014 156.53Z" fill="#3E6D37"/>
</g>
<mask id="mask26_42_3851" style="mask-type:luminance" maskUnits="userSpaceOnUse" x="217" y="120" width="111" height="32">
<path d="M327.999 148.822C327.999 148.822 270.615 89.0392 217.963 141.698C217.963 141.698 224.223 145.645 232.486 141.425C237.495 138.867 240.262 140.517 243.019 142.165C244.81 143.238 246.595 144.309 248.988 144.228C253.585 144.071 256.899 138.018 263.732 140.502C271.021 143.152 271.14 148.588 278.711 145.737C286.285 142.888 289.885 141.7 296.751 145.356C302.72 148.533 305.069 152.242 310.353 151.29C318.885 149.752 322.849 146.843 327.999 148.822Z" fill="white"/>
</mask>
<g mask="url(#mask26_42_3851)">
<path fill-rule="evenodd" clip-rule="evenodd" d="M232.676 158.839C232.505 158.839 232.331 158.802 232.167 158.72C231.592 158.438 231.354 157.742 231.639 157.169L253.5 112.706C253.782 112.131 254.478 111.895 255.051 112.178C255.626 112.46 255.864 113.155 255.58 113.729L233.719 158.191C233.516 158.601 233.106 158.839 232.676 158.839Z" fill="#3E6D37"/>
</g>
<mask id="mask27_42_3851" style="mask-type:luminance" maskUnits="userSpaceOnUse" x="217" y="120" width="111" height="32">
<path d="M327.999 148.822C327.999 148.822 270.615 89.0392 217.963 141.698C217.963 141.698 224.223 145.645 232.486 141.425C237.495 138.867 240.262 140.517 243.019 142.165C244.81 143.238 246.595 144.309 248.988 144.228C253.585 144.071 256.899 138.018 263.732 140.502C271.021 143.152 271.14 148.588 278.711 145.737C286.285 142.888 289.885 141.7 296.751 145.356C302.72 148.533 305.069 152.242 310.353 151.29C318.885 149.752 322.849 146.843 327.999 148.822Z" fill="white"/>
</mask>
<g mask="url(#mask27_42_3851)">
<path fill-rule="evenodd" clip-rule="evenodd" d="M243.341 161.148C243.169 161.148 242.995 161.109 242.83 161.029C242.255 160.745 242.019 160.051 242.301 159.476L264.164 115.015C264.446 114.44 265.14 114.204 265.716 114.486C266.291 114.769 266.526 115.464 266.244 116.038L244.381 160.501C244.181 160.91 243.769 161.148 243.341 161.148Z" fill="#3E6D37"/>
</g>
<mask id="mask28_42_3851" style="mask-type:luminance" maskUnits="userSpaceOnUse" x="217" y="120" width="111" height="32">
<path d="M327.999 148.822C327.999 148.822 270.615 89.0392 217.963 141.698C217.963 141.698 224.223 145.645 232.486 141.425C237.495 138.867 240.262 140.517 243.019 142.165C244.81 143.238 246.595 144.309 248.988 144.228C253.585 144.071 256.899 138.018 263.732 140.502C271.021 143.152 271.14 148.588 278.711 145.737C286.285 142.888 289.885 141.7 296.751 145.356C302.72 148.533 305.069 152.242 310.353 151.29C318.885 149.752 322.849 146.843 327.999 148.822Z" fill="white"/>
</mask>
<g mask="url(#mask28_42_3851)">
<path fill-rule="evenodd" clip-rule="evenodd" d="M254.003 163.455C253.832 163.455 253.657 163.418 253.494 163.336C252.919 163.054 252.681 162.36 252.963 161.785L274.826 117.324C275.109 116.749 275.805 116.512 276.378 116.795C276.953 117.077 277.191 117.772 276.907 118.347L255.046 162.808C254.843 163.217 254.431 163.455 254.003 163.455Z" fill="#3E6D37"/>
</g>
<mask id="mask29_42_3851" style="mask-type:luminance" maskUnits="userSpaceOnUse" x="217" y="120" width="111" height="32">
<path d="M327.999 148.822C327.999 148.822 270.615 89.0392 217.963 141.698C217.963 141.698 224.223 145.645 232.486 141.425C237.495 138.867 240.262 140.517 243.019 142.165C244.81 143.238 246.595 144.309 248.988 144.228C253.585 144.071 256.899 138.018 263.732 140.502C271.021 143.152 271.14 148.588 278.711 145.737C286.285 142.888 289.885 141.7 296.751 145.356C302.72 148.533 305.069 152.242 310.353 151.29C318.885 149.752 322.849 146.843 327.999 148.822Z" fill="white"/>
</mask>
<g mask="url(#mask29_42_3851)">
<path fill-rule="evenodd" clip-rule="evenodd" d="M264.669 165.765C264.497 165.765 264.323 165.727 264.158 165.646C263.583 165.364 263.347 164.667 263.629 164.094L285.492 119.632C285.774 119.057 286.468 118.821 287.043 119.103C287.618 119.386 287.854 120.08 287.572 120.655L265.709 165.117C265.508 165.527 265.096 165.765 264.669 165.765Z" fill="#3E6D37"/>
</g>
<mask id="mask30_42_3851" style="mask-type:luminance" maskUnits="userSpaceOnUse" x="217" y="120" width="111" height="32">
<path d="M327.999 148.822C327.999 148.822 270.615 89.0392 217.963 141.698C217.963 141.698 224.223 145.645 232.486 141.425C237.495 138.867 240.262 140.517 243.019 142.165C244.81 143.238 246.595 144.309 248.988 144.228C253.585 144.071 256.899 138.018 263.732 140.502C271.021 143.152 271.14 148.588 278.711 145.737C286.285 142.888 289.885 141.7 296.751 145.356C302.72 148.533 305.069 152.242 310.353 151.29C318.885 149.752 322.849 146.843 327.999 148.822Z" fill="white"/>
</mask>
<g mask="url(#mask30_42_3851)">
<path fill-rule="evenodd" clip-rule="evenodd" d="M275.332 168.074C275.16 168.074 274.986 168.034 274.82 167.955C274.247 167.671 274.01 166.977 274.292 166.401L296.155 121.94C296.437 121.366 297.133 121.129 297.706 121.412C298.281 121.694 298.517 122.389 298.235 122.963L276.374 167.426C276.171 167.836 275.759 168.074 275.332 168.074Z" fill="#3E6D37"/>
</g>
<mask id="mask31_42_3851" style="mask-type:luminance" maskUnits="userSpaceOnUse" x="217" y="120" width="111" height="32">
<path d="M327.999 148.822C327.999 148.822 270.615 89.0392 217.963 141.698C217.963 141.698 224.223 145.645 232.486 141.425C237.495 138.867 240.262 140.517 243.019 142.165C244.81 143.238 246.595 144.309 248.988 144.228C253.585 144.071 256.899 138.018 263.732 140.502C271.021 143.152 271.14 148.588 278.711 145.737C286.285 142.888 289.885 141.7 296.751 145.356C302.72 148.533 305.069 152.242 310.353 151.29C318.885 149.752 322.849 146.843 327.999 148.822Z" fill="white"/>
</mask>
<g mask="url(#mask31_42_3851)">
<path fill-rule="evenodd" clip-rule="evenodd" d="M285.996 170.381C285.822 170.381 285.648 170.344 285.485 170.262C284.91 169.98 284.674 169.286 284.956 168.711L306.817 124.249C307.101 123.674 307.795 123.438 308.37 123.72C308.943 124.003 309.181 124.697 308.899 125.272L287.036 169.733C286.836 170.143 286.424 170.381 285.996 170.381Z" fill="#3E6D37"/>
</g>
<mask id="mask32_42_3851" style="mask-type:luminance" maskUnits="userSpaceOnUse" x="217" y="120" width="111" height="32">
<path d="M327.999 148.822C327.999 148.822 270.615 89.0392 217.963 141.698C217.963 141.698 224.223 145.645 232.486 141.425C237.495 138.867 240.262 140.517 243.019 142.165C244.81 143.238 246.595 144.309 248.988 144.228C253.585 144.071 256.899 138.018 263.732 140.502C271.021 143.152 271.14 148.588 278.711 145.737C286.285 142.888 289.885 141.7 296.751 145.356C302.72 148.533 305.069 152.242 310.353 151.29C318.885 149.752 322.849 146.843 327.999 148.822Z" fill="white"/>
</mask>
<g mask="url(#mask32_42_3851)">
<path fill-rule="evenodd" clip-rule="evenodd" d="M296.66 172.69C296.488 172.69 296.314 172.653 296.148 172.571C295.573 172.289 295.338 171.593 295.62 171.02L317.483 126.557C317.765 125.983 318.461 125.746 319.034 126.028C319.609 126.311 319.845 127.006 319.563 127.58L297.7 172.042C297.499 172.452 297.087 172.69 296.66 172.69Z" fill="#3E6D37"/>
</g>
<mask id="mask33_42_3851" style="mask-type:luminance" maskUnits="userSpaceOnUse" x="217" y="120" width="111" height="32">
<path d="M327.999 148.822C327.999 148.822 270.615 89.0392 217.963 141.698C217.963 141.698 224.223 145.645 232.486 141.425C237.495 138.867 240.262 140.517 243.019 142.165C244.81 143.238 246.595 144.309 248.988 144.228C253.585 144.071 256.899 138.018 263.732 140.502C271.021 143.152 271.14 148.588 278.711 145.737C286.285 142.888 289.885 141.7 296.751 145.356C302.72 148.533 305.069 152.242 310.353 151.29C318.885 149.752 322.849 146.843 327.999 148.822Z" fill="white"/>
</mask>
<g mask="url(#mask33_42_3851)">
<path fill-rule="evenodd" clip-rule="evenodd" d="M307.322 174.999C307.151 174.999 306.977 174.96 306.813 174.88C306.238 174.596 306 173.902 306.285 173.327L328.146 128.866C328.43 128.291 329.124 128.055 329.699 128.337C330.272 128.62 330.51 129.314 330.228 129.889L308.365 174.352C308.162 174.761 307.752 174.999 307.322 174.999Z" fill="#3E6D37"/>
</g>
<path fill-rule="evenodd" clip-rule="evenodd" d="M326.487 147.89C326.487 147.89 386.819 91.085 436.741 146.339C436.741 146.339 430.29 149.963 422.251 145.332C414.215 140.7 411.686 147.81 405.628 147.297C401.047 146.909 398.041 140.695 391.094 142.831C383.679 145.109 383.285 150.532 375.868 147.301C368.448 144.073 364.912 142.703 357.87 146.008C351.748 148.881 349.214 152.466 343.985 151.248C335.541 149.28 331.729 146.173 326.487 147.89Z" fill="#3E6D37"/>
<mask id="mask34_42_3851" style="mask-type:luminance" maskUnits="userSpaceOnUse" x="326" y="122" width="111" height="30">
<path d="M326.487 147.89C326.487 147.89 386.819 91.085 436.741 146.339C436.741 146.339 430.29 149.963 422.251 145.332C417.379 142.524 414.53 144.031 411.692 145.541C409.85 146.519 408.012 147.498 405.628 147.297C401.047 146.909 398.041 140.695 391.092 142.831C383.679 145.109 383.285 150.532 375.868 147.301C368.448 144.073 364.912 142.703 357.87 146.008C351.748 148.881 349.214 152.466 343.985 151.248C335.541 149.28 331.729 146.173 326.487 147.89Z" fill="white"/>
</mask>
<g mask="url(#mask34_42_3851)">
<path fill-rule="evenodd" clip-rule="evenodd" d="M432.006 160.95C431.556 160.95 431.129 160.688 430.939 160.249L411.355 114.738C411.101 114.15 411.372 113.468 411.961 113.215C412.549 112.962 413.23 113.233 413.483 113.821L433.07 159.333C433.324 159.919 433.05 160.602 432.462 160.855C432.314 160.919 432.158 160.95 432.006 160.95Z" fill="#4E8946"/>
</g>
<mask id="mask35_42_3851" style="mask-type:luminance" maskUnits="userSpaceOnUse" x="326" y="122" width="111" height="30">
<path d="M326.487 147.89C326.487 147.89 386.819 91.085 436.741 146.339C436.741 146.339 430.29 149.963 422.251 145.332C417.379 142.524 414.53 144.031 411.692 145.541C409.85 146.519 408.012 147.498 405.628 147.297C401.047 146.909 398.041 140.695 391.092 142.831C383.679 145.109 383.285 150.532 375.868 147.301C368.448 144.073 364.912 142.703 357.87 146.008C351.748 148.881 349.214 152.466 343.985 151.248C335.541 149.28 331.729 146.173 326.487 147.89Z" fill="white"/>
</mask>
<g mask="url(#mask35_42_3851)">
<path fill-rule="evenodd" clip-rule="evenodd" d="M421.24 162.715C420.79 162.715 420.363 162.453 420.173 162.014L400.586 116.504C400.335 115.916 400.606 115.234 401.195 114.981C401.781 114.728 402.464 115 402.717 115.587L422.304 161.098C422.555 161.686 422.284 162.367 421.696 162.62C421.548 162.686 421.392 162.715 421.24 162.715Z" fill="#4E8946"/>
</g>
<mask id="mask36_42_3851" style="mask-type:luminance" maskUnits="userSpaceOnUse" x="326" y="122" width="111" height="30">
<path d="M326.487 147.89C326.487 147.89 386.819 91.085 436.741 146.339C436.741 146.339 430.29 149.963 422.251 145.332C417.379 142.524 414.53 144.031 411.692 145.541C409.85 146.519 408.012 147.498 405.628 147.297C401.047 146.909 398.041 140.695 391.092 142.831C383.679 145.109 383.285 150.532 375.868 147.301C368.448 144.073 364.912 142.703 357.87 146.008C351.748 148.881 349.214 152.466 343.985 151.248C335.541 149.28 331.729 146.173 326.487 147.89Z" fill="white"/>
</mask>
<g mask="url(#mask36_42_3851)">
<path fill-rule="evenodd" clip-rule="evenodd" d="M410.471 164.482C410.024 164.482 409.594 164.22 409.407 163.781L389.82 118.271C389.566 117.683 389.84 117.001 390.428 116.747C391.014 116.495 391.697 116.766 391.951 117.354L411.535 162.865C411.789 163.453 411.518 164.134 410.929 164.387C410.779 164.451 410.625 164.482 410.471 164.482Z" fill="#4E8946"/>
</g>
<mask id="mask37_42_3851" style="mask-type:luminance" maskUnits="userSpaceOnUse" x="326" y="122" width="111" height="30">
<path d="M326.487 147.89C326.487 147.89 386.819 91.085 436.741 146.339C436.741 146.339 430.29 149.963 422.251 145.332C417.379 142.524 414.53 144.031 411.692 145.541C409.85 146.519 408.012 147.498 405.628 147.297C401.047 146.909 398.041 140.695 391.092 142.831C383.679 145.109 383.285 150.532 375.868 147.301C368.448 144.073 364.912 142.703 357.87 146.008C351.748 148.881 349.214 152.466 343.985 151.248C335.541 149.28 331.729 146.173 326.487 147.89Z" fill="white"/>
</mask>
<g mask="url(#mask37_42_3851)">
<path fill-rule="evenodd" clip-rule="evenodd" d="M399.705 166.249C399.255 166.249 398.828 165.985 398.64 165.546L379.053 120.037C378.8 119.449 379.071 118.767 379.659 118.514C380.248 118.261 380.931 118.532 381.184 119.12L400.769 164.63C401.022 165.218 400.751 165.901 400.163 166.155C400.013 166.219 399.859 166.249 399.705 166.249Z" fill="#4E8946"/>
</g>
<mask id="mask38_42_3851" style="mask-type:luminance" maskUnits="userSpaceOnUse" x="326" y="122" width="111" height="30">
<path d="M326.487 147.89C326.487 147.89 386.819 91.085 436.741 146.339C436.741 146.339 430.29 149.963 422.251 145.332C417.379 142.524 414.53 144.031 411.692 145.541C409.85 146.519 408.012 147.498 405.628 147.297C401.047 146.909 398.041 140.695 391.092 142.831C383.679 145.109 383.285 150.532 375.868 147.301C368.448 144.073 364.912 142.703 357.87 146.008C351.748 148.881 349.214 152.466 343.985 151.248C335.541 149.28 331.729 146.173 326.487 147.89Z" fill="white"/>
</mask>
<g mask="url(#mask38_42_3851)">
<path fill-rule="evenodd" clip-rule="evenodd" d="M388.939 168.014C388.489 168.014 388.062 167.752 387.872 167.314L368.287 121.803C368.034 121.215 368.305 120.533 368.893 120.28C369.482 120.027 370.165 120.298 370.416 120.886L390.003 166.397C390.256 166.985 389.983 167.666 389.397 167.92C389.247 167.983 389.091 168.014 388.939 168.014Z" fill="#4E8946"/>
</g>
<mask id="mask39_42_3851" style="mask-type:luminance" maskUnits="userSpaceOnUse" x="326" y="122" width="111" height="30">
<path d="M326.487 147.89C326.487 147.89 386.819 91.085 436.741 146.339C436.741 146.339 430.29 149.963 422.251 145.332C417.379 142.524 414.53 144.031 411.692 145.541C409.85 146.519 408.012 147.498 405.628 147.297C401.047 146.909 398.041 140.695 391.092 142.831C383.679 145.109 383.285 150.532 375.868 147.301C368.448 144.073 364.912 142.703 357.87 146.008C351.748 148.881 349.214 152.466 343.985 151.248C335.541 149.28 331.729 146.173 326.487 147.89Z" fill="white"/>
</mask>
<g mask="url(#mask39_42_3851)">
<path fill-rule="evenodd" clip-rule="evenodd" d="M378.172 169.782C377.722 169.782 377.295 169.519 377.105 169.081L357.521 123.57C357.267 122.981 357.538 122.299 358.127 122.046C358.715 121.794 359.396 122.065 359.649 122.653L379.236 168.164C379.49 168.75 379.216 169.433 378.628 169.687C378.48 169.751 378.324 169.782 378.172 169.782Z" fill="#4E8946"/>
</g>
<mask id="mask40_42_3851" style="mask-type:luminance" maskUnits="userSpaceOnUse" x="326" y="122" width="111" height="30">
<path d="M326.487 147.89C326.487 147.89 386.819 91.085 436.741 146.339C436.741 146.339 430.29 149.963 422.251 145.332C417.379 142.524 414.53 144.031 411.692 145.541C409.85 146.519 408.012 147.498 405.628 147.297C401.047 146.909 398.041 140.695 391.092 142.831C383.679 145.109 383.285 150.532 375.868 147.301C368.448 144.073 364.912 142.703 357.87 146.008C351.748 148.881 349.214 152.466 343.985 151.248C335.541 149.28 331.729 146.173 326.487 147.89Z" fill="white"/>
</mask>
<g mask="url(#mask40_42_3851)">
<path fill-rule="evenodd" clip-rule="evenodd" d="M367.406 171.547C366.956 171.547 366.529 171.284 366.339 170.846L346.752 125.336C346.499 124.748 346.772 124.066 347.361 123.813C347.949 123.56 348.63 123.831 348.883 124.419L368.47 169.929C368.721 170.518 368.45 171.201 367.862 171.452C367.712 171.518 367.558 171.547 367.406 171.547Z" fill="#4E8946"/>
</g>
<mask id="mask41_42_3851" style="mask-type:luminance" maskUnits="userSpaceOnUse" x="326" y="122" width="111" height="30">
<path d="M326.487 147.89C326.487 147.89 386.819 91.085 436.741 146.339C436.741 146.339 430.29 149.963 422.251 145.332C417.379 142.524 414.53 144.031 411.692 145.541C409.85 146.519 408.012 147.498 405.628 147.297C401.047 146.909 398.041 140.695 391.092 142.831C383.679 145.109 383.285 150.532 375.868 147.301C368.448 144.073 364.912 142.703 357.87 146.008C351.748 148.881 349.214 152.466 343.985 151.248C335.541 149.28 331.729 146.173 326.487 147.89Z" fill="white"/>
</mask>
<g mask="url(#mask41_42_3851)">
<path fill-rule="evenodd" clip-rule="evenodd" d="M356.638 173.314C356.188 173.314 355.761 173.052 355.574 172.613L335.987 127.102C335.733 126.514 336.007 125.832 336.595 125.579C337.181 125.326 337.864 125.597 338.118 126.186L357.702 171.696C357.956 172.285 357.685 172.966 357.096 173.219C356.946 173.283 356.792 173.314 356.638 173.314Z" fill="#4E8946"/>
</g>
<mask id="mask42_42_3851" style="mask-type:luminance" maskUnits="userSpaceOnUse" x="326" y="122" width="111" height="30">
<path d="M326.487 147.89C326.487 147.89 386.819 91.085 436.741 146.339C436.741 146.339 430.29 149.963 422.251 145.332C417.379 142.524 414.53 144.031 411.692 145.541C409.85 146.519 408.012 147.498 405.628 147.297C401.047 146.909 398.041 140.695 391.092 142.831C383.679 145.109 383.285 150.532 375.868 147.301C368.448 144.073 364.912 142.703 357.87 146.008C351.748 148.881 349.214 152.466 343.985 151.248C335.541 149.28 331.729 146.173 326.487 147.89Z" fill="white"/>
</mask>
<g mask="url(#mask42_42_3851)">
<path fill-rule="evenodd" clip-rule="evenodd" d="M345.872 175.081C345.422 175.081 344.995 174.817 344.807 174.378L325.22 128.868C324.967 128.28 325.238 127.599 325.826 127.345C326.415 127.092 327.098 127.364 327.349 127.952L346.936 173.461C347.189 174.05 346.918 174.733 346.33 174.986C346.18 175.05 346.024 175.081 345.872 175.081Z" fill="#4E8946"/>
</g>
<path fill-rule="evenodd" clip-rule="evenodd" d="M326.049 141.599C325.666 141.599 325.291 141.409 325.069 141.061C324.883 140.77 324.712 140.495 324.546 140.233C322.149 136.429 321.9 136.031 314.906 132.571C311.167 130.72 310.142 127.717 308.959 124.239C308.443 122.724 307.857 121.007 306.98 119.163C303.933 112.748 301.006 111.63 292.99 109.344C287.486 107.774 286.759 105.005 285.917 101.799C285.45 100.02 284.921 98.0038 283.425 95.7412C281.263 92.4708 278.425 92.176 275.419 91.864C273.43 91.6573 271.374 91.4438 269.67 90.2691C267.427 88.7207 266.526 86.4004 265.733 84.3533C264.521 81.2352 263.567 78.7719 258.651 78.3918C252.391 77.9074 249.46 74.152 249.337 73.9923C248.949 73.4833 249.046 72.7559 249.557 72.3674C250.064 71.9803 250.789 72.0766 251.176 72.582C251.287 72.7217 253.664 75.6804 258.829 76.0801C265.199 76.5728 266.632 80.261 267.894 83.5147C268.633 85.4187 269.331 87.2172 270.988 88.3606C272.202 89.1986 273.804 89.365 275.659 89.5578C278.747 89.8786 282.592 90.2777 285.359 94.4625C287.065 97.0444 287.673 99.3541 288.16 101.21C288.955 104.239 289.394 105.907 293.627 107.114C301.806 109.447 305.57 110.79 309.076 118.168C310.008 120.133 310.616 121.917 311.153 123.492C312.297 126.848 313.053 129.066 315.935 130.493C323.233 134.105 323.852 134.781 326.507 138.999C326.67 139.257 326.842 139.53 327.027 139.818C327.369 140.358 327.21 141.074 326.668 141.418C326.477 141.542 326.261 141.599 326.049 141.599Z" fill="#4E8946"/>
<path fill-rule="evenodd" clip-rule="evenodd" d="M347.066 152.118C346.121 158.273 340.367 162.497 334.213 161.551C328.058 160.606 323.834 154.851 324.78 148.696C325.725 142.542 331.481 138.318 337.635 139.263C343.789 140.208 348.011 145.964 347.066 152.118Z" fill="#7B5028"/>
<path fill-rule="evenodd" clip-rule="evenodd" d="M327.089 155.86C326.144 162.014 320.389 166.236 314.234 165.291C308.08 164.345 303.858 158.59 304.803 152.436C305.748 146.281 311.504 142.059 317.658 143.005C323.813 143.95 328.035 149.705 327.089 155.86Z" fill="#7B5028"/>
<path fill-rule="evenodd" clip-rule="evenodd" d="M326.75 158.116C326.651 158.116 326.551 158.103 326.452 158.077C325.833 157.914 325.465 157.279 325.628 156.662C325.644 156.6 327.206 150.455 323.949 147.914C323.445 147.52 323.354 146.79 323.749 146.286C324.143 145.781 324.87 145.691 325.375 146.085C329.841 149.571 327.953 156.94 327.869 157.253C327.733 157.773 327.263 158.116 326.75 158.116Z" fill="#57351E"/>
<path fill-rule="evenodd" clip-rule="evenodd" d="M310.867 159.531C310.704 160.588 309.715 161.316 308.657 161.153C307.599 160.99 306.872 160 307.035 158.942C307.196 157.885 308.187 157.158 309.245 157.321C310.303 157.484 311.028 158.473 310.867 159.531Z" fill="#57351E"/>
<path fill-rule="evenodd" clip-rule="evenodd" d="M314.073 155.23C313.91 156.287 312.921 157.012 311.863 156.849C310.806 156.688 310.079 155.699 310.242 154.641C310.405 153.581 311.394 152.856 312.452 153.019C313.509 153.18 314.234 154.17 314.073 155.23Z" fill="#57351E"/>
<path fill-rule="evenodd" clip-rule="evenodd" d="M309.671 154.553C309.508 155.611 308.518 156.336 307.461 156.175C306.403 156.012 305.676 155.023 305.839 153.965C306.002 152.907 306.991 152.18 308.049 152.343C309.107 152.506 309.831 153.496 309.671 154.553Z" fill="#57351E"/>
<path fill-rule="evenodd" clip-rule="evenodd" d="M341.655 155.543C341.491 156.6 340.502 157.327 339.444 157.164C338.387 157.001 337.66 156.012 337.823 154.954C337.986 153.896 338.975 153.172 340.033 153.332C341.09 153.495 341.818 154.485 341.655 155.543Z" fill="#57351E"/>
<path fill-rule="evenodd" clip-rule="evenodd" d="M344.86 151.241C344.697 152.299 343.708 153.024 342.65 152.863C341.592 152.7 340.867 151.711 341.028 150.653C341.191 149.595 342.181 148.868 343.238 149.031C344.296 149.194 345.023 150.184 344.86 151.241Z" fill="#57351E"/>
<path fill-rule="evenodd" clip-rule="evenodd" d="M340.458 150.565C340.295 151.623 339.305 152.348 338.248 152.187C337.19 152.024 336.465 151.034 336.626 149.977C336.789 148.919 337.778 148.192 338.836 148.355C339.894 148.518 340.621 149.507 340.458 150.565Z" fill="#57351E"/>
</g>
<path d="M228.568 214.668L230.221 230.394C230.221 230.394 218.698 241.191 212.524 240.321C206.35 239.452 203.437 230.843 203.437 230.843L205.611 221.19L228.568 214.668Z" fill="#FFBCAC"/>
<path d="M228.568 214.668L229.135 220.064C229.135 220.064 222.959 232.118 216.089 233.249C209.219 234.379 203.847 229.018 203.847 229.018L205.61 221.19L228.568 214.668Z" fill="#FFA17E"/>
<path d="M256.566 355.821C228.303 356.83 208.185 358.826 182.469 374.155C177.313 377.229 171.519 379.657 165.25 381.498C165.503 375.651 166.036 363.928 166.744 351.456C166.992 347.066 167.263 342.585 167.552 338.234C167.792 334.635 168.043 331.125 168.303 327.833C168.731 322.412 169.184 317.577 169.653 313.89L166.13 290.974L174.805 243.713L195.16 233.765L200.959 230.93C200.959 230.93 202.681 234.506 205.588 237.243C207.458 239.007 209.819 240.424 212.525 240.321C212.565 240.319 212.604 240.317 212.644 240.314C214.282 240.23 216.382 239.639 218.639 238.78L218.642 238.779C225.93 236.014 234.84 230.497 235.003 230.396L235.004 230.394C235.004 230.394 260.049 235.104 264.614 238.039L266.766 272.866L282.029 292.569L275.963 319.109L276.126 324.858L276.246 329.079V329.081L277.421 355.336C271.116 356.306 270.146 355.336 256.566 355.821Z" fill="#27954C"/>
<path d="M229.673 225.188C229.673 225.188 233.698 226.728 235.003 230.394C235.003 230.394 226.002 243.061 212.567 241.104C212.567 241.104 201.74 239.408 200.958 230.93C200.958 230.93 202.065 228.218 204.251 227.226C204.251 227.226 206.566 233.191 212.045 233.973L212.654 239.8L214.393 234.147C214.393 234.147 226.169 233.795 229.673 225.188Z" fill="#277F40"/>
<path d="M211.633 343.691C211.422 343.691 211.249 343.52 211.247 343.308C211.245 343.021 211.011 314.34 211.247 296.883C211.484 279.429 212.261 240.186 212.269 239.792C212.273 239.582 212.445 239.414 212.654 239.414H212.662C212.875 239.419 213.044 239.595 213.04 239.807C213.032 240.202 212.255 279.443 212.018 296.894C211.781 314.342 212.016 343.014 212.018 343.302C212.02 343.515 211.849 343.689 211.636 343.691H211.633L211.633 343.691Z" fill="#277F40"/>
<path d="M276.368 333.396C270.599 334.907 264.972 336.548 259.453 338.323C253.688 334.325 246.594 327.613 238.341 316.442C238.341 316.441 238.339 316.441 238.339 316.439C235.413 312.479 232.343 307.959 229.135 302.803L276.125 324.858L276.245 329.079V329.081L276.368 333.396Z" fill="#277F40"/>
<path d="M203.436 302.803C203.436 302.803 189.661 346.105 166.743 351.455L168.302 327.834L203.436 302.803Z" fill="#277F40"/>
<path d="M219.806 292.629C219.806 292.629 223.556 280.824 238.003 271.693L227.437 288.041C227.437 288.041 223.306 292.759 219.806 292.629Z" fill="#277F40"/>
<path d="M237.264 273.714C237.264 273.714 233.35 271.714 231.959 270.149C230.568 268.584 224.306 256.235 224.306 256.235C224.306 256.235 219.991 250.056 216.49 247.621C215.792 247.135 215.012 246.587 214.124 246.46C213.342 246.348 212.639 246.944 212.62 247.734L212.106 269.378C212.063 271.161 212.608 272.906 213.649 274.354C215.529 276.969 218.71 280.85 221.241 281.193L229.134 293.976L237.263 273.714L237.264 273.714Z" fill="#FFBCAC"/>
<path d="M216.089 263.273C215.901 263.273 215.737 263.135 215.708 262.944C215.705 262.924 215.399 260.876 214.925 258.835C214.03 254.985 213.403 254.86 213.397 254.859C213.273 254.855 213.182 254.89 213.097 254.982C212.674 255.438 212.669 256.884 212.766 257.688C212.791 257.899 212.641 258.091 212.429 258.116C212.217 258.143 212.026 257.991 212.001 257.78C211.97 257.531 211.729 255.323 212.532 254.457C212.77 254.2 213.081 254.072 213.433 254.089C214.02 254.116 214.745 254.675 215.666 258.617C216.153 260.704 216.467 262.81 216.471 262.831C216.502 263.041 216.356 263.237 216.146 263.269C216.127 263.272 216.108 263.273 216.089 263.273L216.089 263.273Z" fill="#FFA17E"/>
<path d="M218.958 260.925C218.797 260.925 218.648 260.825 218.593 260.664C217.58 257.694 215.018 252.231 214.006 251.606C213.819 251.491 213.71 251.51 213.636 251.54C213.269 251.688 212.965 252.459 212.875 252.809C212.822 253.015 212.612 253.139 212.406 253.087C212.2 253.034 212.075 252.825 212.128 252.619C212.165 252.471 212.519 251.161 213.346 250.826C213.584 250.73 213.962 250.673 214.411 250.951C215.714 251.755 218.369 257.618 219.322 260.416C219.391 260.617 219.283 260.836 219.082 260.905C219.041 260.919 218.999 260.926 218.958 260.926L218.958 260.925Z" fill="#FFA17E"/>
<path d="M221.567 258.773C221.428 258.773 221.294 258.698 221.225 258.565C221.2 258.518 218.741 253.793 218.161 252.698C216.959 250.427 215.261 248.097 214.178 248.01C213.894 247.987 213.666 248.056 213.484 248.222C213.063 248.606 212.962 249.432 212.958 249.717C212.956 249.928 212.784 250.098 212.573 250.098H212.569C212.356 250.096 212.186 249.923 212.188 249.71C212.188 249.655 212.207 248.346 212.963 247.655C213.306 247.34 213.736 247.202 214.24 247.242C216.086 247.391 218.229 251.179 218.842 252.337C219.423 253.434 221.884 258.162 221.909 258.209C222.007 258.398 221.934 258.631 221.745 258.729C221.688 258.759 221.627 258.773 221.567 258.773L221.567 258.773Z" fill="#FFA17E"/>
<path d="M216.35 266.795C216.263 266.795 216.177 266.766 216.105 266.707C215.941 266.572 215.917 266.329 216.052 266.165C218.475 263.218 222.867 260.338 223.053 260.217C223.23 260.101 223.469 260.151 223.586 260.329C223.702 260.508 223.652 260.746 223.474 260.863C223.429 260.892 218.994 263.8 216.647 266.654C216.571 266.747 216.461 266.795 216.35 266.795Z" fill="#FFA17E"/>
<path d="M250.721 261.518C250.721 261.518 256.004 234.321 264.613 238.039C273.222 241.756 297.288 267.779 297.68 295.955C298.071 324.13 273.026 334.892 256.786 330C240.546 325.108 219.806 292.628 219.806 292.628C219.806 292.628 232.725 285.026 238.003 271.693C238.003 271.693 257.569 284.41 262.656 289.693L254.047 273.062L250.721 261.518Z" fill="#27954C"/>
<path d="M272.243 296.144C272.173 296.144 272.101 296.125 272.037 296.085L262.45 290.019C262.317 289.935 262.248 289.778 262.277 289.623C262.306 289.468 262.426 289.346 262.58 289.316C262.947 289.242 271.63 287.575 277.765 292.424C277.932 292.556 277.961 292.798 277.829 292.965C277.697 293.132 277.454 293.161 277.287 293.029C272.624 289.343 266.202 289.644 263.743 289.925L272.449 295.433C272.629 295.547 272.683 295.785 272.569 295.965C272.496 296.081 272.371 296.144 272.243 296.144Z" fill="#277F40"/>
<path d="M264.814 331.52C261.994 331.52 259.238 331.141 256.676 330.369C249.867 328.318 241.534 321.373 231.91 309.725C224.762 301.076 219.534 292.917 219.482 292.836C219.424 292.745 219.407 292.635 219.434 292.531C219.461 292.427 219.53 292.339 219.625 292.288C219.74 292.227 231.198 285.974 237.651 271.535C237.697 271.432 237.786 271.355 237.894 271.323C238.002 271.291 238.119 271.308 238.213 271.369C238.942 271.843 254.663 282.08 261.279 287.871L253.705 273.239C253.694 273.217 253.684 273.193 253.677 273.169L250.351 261.625C250.292 261.42 250.41 261.207 250.614 261.148C250.82 261.089 251.033 261.207 251.092 261.411L254.407 272.919L262.999 289.516C263.087 289.686 263.037 289.895 262.881 290.007C262.725 290.118 262.512 290.099 262.379 289.961C257.768 285.172 240.908 274.055 238.169 272.261C234.753 279.716 230.059 284.91 226.694 287.973C223.695 290.703 221.25 292.237 220.352 292.762C221.417 294.394 226.216 301.626 232.509 309.241C241.898 320.602 250.332 327.653 256.898 329.631C263.863 331.729 272.307 330.844 279.485 327.264C279.676 327.169 279.907 327.246 280.002 327.437C280.097 327.627 280.02 327.858 279.829 327.954C275.114 330.305 269.861 331.52 264.814 331.52Z" fill="#277F40"/>
<path d="M211.633 291.259C211.633 291.259 209.959 285.454 203.436 279.802L196.306 288.846C196.306 288.846 205.829 294.02 211.633 291.259H211.633Z" fill="#277F40"/>
<path d="M188.941 277.087C188.941 277.087 191.783 272.475 193.175 270.91C194.566 269.345 200.546 256.235 200.546 256.235C200.546 256.235 204.861 250.056 208.362 247.621C209.06 247.135 209.84 246.587 210.728 246.46C211.51 246.348 212.213 246.944 212.232 247.734L212.746 269.378C212.789 271.161 212.244 272.906 211.203 274.354C209.323 276.969 206.142 280.85 203.611 281.193L195.718 293.976L188.941 277.087Z" fill="#FFBCAC"/>
<path d="M192.609 270.91C192.609 270.91 198.932 283.285 211.633 291.259C211.633 291.259 192.609 331.174 173.434 337.239C154.26 343.305 147.216 320.217 147.216 306.521C147.216 292.824 155.238 259.562 163.651 251.931C172.065 244.3 174.804 243.713 174.804 243.713C174.804 243.713 183.022 261.518 180.674 273.258L176.957 290.974C176.957 290.974 184.979 278.932 192.609 270.91Z" fill="#27954C"/>
<path d="M170.435 303.188C170.372 303.188 170.308 303.173 170.249 303.14C170.062 303.038 169.995 302.803 170.097 302.617L175.928 292.041C174.085 293.202 170.725 295.543 170.016 297.581C169.946 297.783 169.726 297.889 169.525 297.819C169.324 297.749 169.218 297.529 169.288 297.328C170.367 294.225 176.509 290.782 176.77 290.637C176.92 290.553 177.107 290.579 177.229 290.701C177.351 290.822 177.377 291.009 177.294 291.16L170.772 302.989C170.702 303.116 170.57 303.188 170.435 303.188Z" fill="#277F40"/>
<path d="M167.399 338.626C163.497 338.626 160.005 337.268 156.968 334.559C156.809 334.417 156.795 334.174 156.937 334.015C157.079 333.856 157.322 333.842 157.481 333.984C161.819 337.853 167.147 338.824 173.318 336.872C181.072 334.419 190.091 325.739 199.398 311.769C205.761 302.218 210.275 293.162 211.136 291.401C200.081 284.347 193.831 273.902 192.525 271.561C185.112 279.466 177.356 291.069 177.277 291.188C177.175 291.341 176.977 291.401 176.808 291.329C176.637 291.258 176.541 291.076 176.58 290.895L180.297 273.179C180.341 272.971 180.545 272.837 180.753 272.881C180.962 272.925 181.095 273.129 181.051 273.337L177.732 289.155C180.195 285.595 186.41 276.869 192.33 270.645C192.416 270.554 192.541 270.511 192.665 270.529C192.789 270.547 192.896 270.624 192.953 270.735C193.016 270.858 199.379 283.111 211.838 290.933C212.003 291.037 212.065 291.249 211.981 291.425C211.933 291.525 207.131 301.552 200.045 312.189C195.879 318.442 191.749 323.683 187.769 327.766C182.769 332.893 177.986 336.204 173.551 337.608C171.402 338.287 169.349 338.627 167.399 338.627L167.399 338.626Z" fill="#277F40"/>
<path d="M208.764 263.273C208.745 263.273 208.726 263.272 208.707 263.269C208.497 263.238 208.351 263.042 208.383 262.831C208.386 262.81 208.7 260.704 209.188 258.618C210.108 254.675 210.833 254.116 211.42 254.089C211.77 254.073 212.083 254.201 212.321 254.458C213.124 255.323 212.883 257.531 212.852 257.78C212.827 257.992 212.635 258.143 212.424 258.117C212.212 258.091 212.062 257.899 212.087 257.688C212.184 256.884 212.179 255.438 211.756 254.982C211.671 254.89 211.581 254.855 211.455 254.859C211.45 254.86 210.823 254.985 209.928 258.836C209.454 260.876 209.148 262.924 209.145 262.944C209.117 263.136 208.952 263.273 208.764 263.273L208.764 263.273Z" fill="#FFA17E"/>
<path d="M205.893 260.925C205.852 260.925 205.81 260.918 205.769 260.904C205.567 260.836 205.46 260.617 205.529 260.415C206.482 257.618 209.137 251.755 210.439 250.95C210.889 250.672 211.267 250.729 211.505 250.826C212.332 251.16 212.686 252.47 212.723 252.618C212.775 252.825 212.651 253.034 212.444 253.087C212.237 253.139 212.029 253.014 211.976 252.808C211.886 252.458 211.582 251.688 211.215 251.54C211.141 251.51 211.032 251.49 210.844 251.606C209.833 252.23 207.271 257.693 206.258 260.664C206.203 260.824 206.053 260.925 205.893 260.925L205.893 260.925Z" fill="#FFA17E"/>
<path d="M203.285 258.773C203.225 258.773 203.164 258.759 203.107 258.729C202.918 258.631 202.845 258.398 202.943 258.21C202.968 258.162 205.429 253.435 206.01 252.337C206.623 251.18 208.766 247.391 210.612 247.242C211.115 247.202 211.546 247.34 211.89 247.655C212.645 248.346 212.664 249.655 212.665 249.71C212.666 249.923 212.495 250.097 212.282 250.099H212.279C212.068 250.099 211.896 249.929 211.894 249.717C211.89 249.432 211.789 248.606 211.368 248.222C211.186 248.057 210.958 247.987 210.674 248.01C209.591 248.098 207.893 250.428 206.691 252.698C206.111 253.793 203.652 258.518 203.627 258.566C203.558 258.697 203.424 258.773 203.285 258.773L203.285 258.773Z" fill="#FFA17E"/>
<path d="M208.504 266.795C208.392 266.795 208.282 266.747 208.206 266.654C205.857 263.798 201.424 260.892 201.38 260.863C201.201 260.746 201.151 260.508 201.267 260.329C201.384 260.151 201.623 260.101 201.8 260.217C201.986 260.338 206.378 263.218 208.801 266.165C208.936 266.329 208.913 266.572 208.748 266.707C208.676 266.766 208.59 266.795 208.503 266.795H208.504Z" fill="#FFA17E"/>
<path d="M182.468 177.439C182.468 177.439 175.62 210.115 188.143 222.833C200.665 235.551 217.949 228.442 223.297 219.833C228.645 211.224 230.993 181.874 230.993 181.874C230.993 181.874 199.034 164.526 182.468 177.439Z" fill="#FFBCAC"/>
<path d="M241.207 199.807L232.819 211.027C232.819 211.027 222.644 226.354 216.969 230.921C211.295 235.487 205.753 238.094 201.251 237.638C199.169 237.426 197.116 235.84 195.416 234.041C193.447 231.957 191.95 229.587 191.425 228.745C190.446 227.181 188.143 222.833 188.143 222.833C188.143 222.833 194.404 226.616 198.838 226.224C198.838 226.224 200.338 222.572 204.316 222.18C208.296 221.788 211.752 223.81 211.752 223.81C211.752 223.81 220.687 216.31 222.188 210.636C223.687 204.962 225.123 196.744 225.123 196.744C225.123 196.744 223.361 194.918 222.839 191.397C222.79 191.068 222.75 190.718 222.718 190.354C222.398 186.819 222.773 181.939 222.773 181.939L240.058 190.614L241.207 199.807Z" fill="#3F3D4F"/>
<path d="M241.206 199.807L232.819 211.027C232.819 211.027 222.643 226.354 216.969 230.921C211.295 235.486 205.752 238.094 201.251 237.638C199.169 237.426 197.116 235.84 195.416 234.041C196.005 234.024 196.528 233.786 196.947 233.248C199.675 229.741 211.088 230.93 214.914 228.754C218.742 226.581 228.546 210.515 228.546 210.515L234.623 201.481C234.623 201.481 233.373 193.884 228.546 191.796C226.003 190.698 224.023 190.394 222.718 190.354C222.398 186.819 222.773 181.939 222.773 181.939L240.057 190.614L241.206 199.807L241.206 199.807Z" fill="#2D2D3D"/>
<path d="M196.946 215.398C196.946 215.398 206.86 214.093 211.752 209.397C211.752 209.397 211.709 216.115 205.795 218.268C199.881 220.42 196.946 215.398 196.946 215.398Z" fill="white"/>
<path d="M241.206 199.807C225.949 182.173 206.264 174.968 182.468 177.44C182.468 177.44 182.605 176.929 182.912 176.064C184.982 170.232 194.779 148.335 222.383 158.787C232.081 162.459 237.221 168.865 239.832 175.538V175.54C244.418 187.262 241.206 199.807 241.206 199.807Z" fill="#27954C"/>
<path d="M229.262 201.257C229.262 201.257 234.348 196.922 239.672 198.892C244.996 200.862 240.658 208.105 238.471 210.397C236.284 212.69 230.487 215.954 228.905 212.745C228.905 212.745 226.811 209.559 229.262 201.257Z" fill="#FFBCAC"/>
<path d="M234.427 209.783C234.391 209.783 234.353 209.778 234.316 209.767C234.112 209.705 233.997 209.49 234.058 209.286C234.061 209.277 234.358 208.254 233.968 207.549C233.802 207.248 233.534 207.05 233.15 206.943C231.636 206.52 230.664 208.866 230.654 208.89C230.583 209.064 230.398 209.16 230.214 209.122C230.031 209.082 229.903 208.916 229.912 208.728C229.921 208.519 230.178 203.583 233.622 201.544C237.111 199.478 240.542 202.066 240.576 202.092C240.744 202.222 240.776 202.464 240.646 202.632C240.516 202.801 240.274 202.832 240.106 202.703C239.982 202.608 237.049 200.41 234.015 202.207C232.145 203.314 231.318 205.472 230.956 207.009C231.528 206.401 232.333 205.914 233.357 206.2C233.944 206.364 234.377 206.693 234.644 207.18C235.19 208.172 234.812 209.455 234.796 209.509C234.746 209.675 234.593 209.783 234.427 209.783L234.427 209.783Z" fill="#FFA17E"/>
<path d="M241.206 199.807C225.949 182.173 206.264 174.968 182.468 177.44C182.468 177.44 182.605 176.929 182.912 176.063C206.478 170.247 226.083 183.46 233.34 183.831C237.388 184.038 239.108 179.659 239.832 175.54C244.418 187.262 241.206 199.807 241.206 199.807Z" fill="#277F40"/>
<path d="M126.536 329.206C126.534 329.211 126.534 329.215 126.534 329.215C125.361 333.394 120.014 339.378 115.428 343.927C111.658 347.667 108.4 350.437 108.4 350.437C108.4 350.437 35.7194 351.94 22.3109 349.436C20.7435 348.267 19.1637 347.044 17.5766 345.769C15.7556 344.305 13.9241 342.774 12.0889 341.176C11.4605 340.269 10.9017 339.376 10.4162 338.55C8.97561 336.095 8.18116 334.212 8.18116 334.212C8.18116 334.212 8.17936 334.21 8.17575 334.205C5.94778 329.859 6.46383 313.786 6.46383 313.786L10.8536 279.13L54.8299 280.071H54.8317L56.4222 280.105L56.7846 280.112L56.9756 280.115L59.6569 280.173L74.1044 280.481L76.2324 280.528L86.9256 280.756L87.1791 280.762L90.8029 281.001L92.1276 281.088L92.506 281.113L94.1448 281.222L116.417 282.693L126.533 304.815C126.533 304.815 128.67 321.585 126.535 329.206L126.536 329.206Z" fill="#936F5B"/>
<path d="M118.827 382.356C87.8593 380.159 55.185 370.133 32.6149 356.419C29.2624 354.382 25.8151 352.046 22.3108 349.436C20.7434 348.267 19.1635 347.044 17.5764 345.769C15.7555 344.305 13.924 342.774 12.0887 341.176C11.4817 340.647 10.8748 340.114 10.2661 339.571L10.4161 338.55L14.2845 312.208L15.2539 305.606V305.602L17.8709 287.775L18.6171 282.693L45.0004 285.1L55.624 286.069L56.3595 286.137L59.796 286.449L65.7978 286.997L66.2887 287.042L81.1755 288.4H81.1773L83.307 288.595H83.3088L86.8757 288.92L89.6105 289.17L92.9077 289.47L100.29 290.143H100.291L110.754 291.098L111.267 296.886L111.725 302.068V302.072L113.693 324.317L114.126 329.215L115.428 343.927L118.827 382.357L118.827 382.356Z" fill="#BFAB4D"/>
<path d="M114.127 329.215C114.127 329.215 109.164 330.584 96.1819 330.202C83.2019 329.822 79.3834 341.69 62.3955 336.136C45.4058 330.584 37.5153 322.567 25.426 323.713C18.8832 324.333 17.4836 335.579 17.5764 345.769C15.7555 344.305 13.924 342.774 12.0887 341.176C11.4817 340.647 10.8748 340.114 10.2661 339.571L10.4161 338.55L14.2845 312.208L15.2539 305.606V305.602L17.8709 287.775L18.6171 282.693L45.0004 285.1L55.624 286.069L56.3595 286.137L59.796 286.449L65.7978 286.997L66.2887 287.042L81.1755 288.4H81.1773L83.307 288.595H83.3088L86.8757 288.92L89.6105 289.17L92.9077 289.47L100.29 290.143H100.291L110.754 291.098L111.267 296.886L111.725 302.068V302.072L113.693 324.317L114.126 329.215L114.127 329.215Z" fill="#A58D02"/>
<path d="M126.534 329.215C126.534 329.215 129.51 310.351 106.452 299.088C106.452 299.088 102.1 299.368 99.2362 308.008C96.3728 316.649 76.9017 331.157 66.9761 331.539C57.0504 331.921 38.7237 321.613 33.7609 304.433C28.7981 287.252 18.1085 297.369 15.0539 306.15C13.5954 310.342 11.7477 315.837 10.316 320.956C8.74857 326.562 7.68278 331.718 8.18093 334.211C8.18093 334.211 -4.29044 321.06 1.56321 288.471C3.04306 280.236 5.15687 272.876 7.67571 266.378C15.1181 247.164 26.0935 235.48 34.6516 230.926C35.2354 230.615 35.8031 230.317 36.3529 230.03H36.3547C46.6124 224.704 51.1949 223.558 51.1949 223.558C51.1949 223.558 50.9717 222.85 50.6559 221.607C49.6187 217.533 47.5693 207.724 49.0313 198.36C50.9415 186.143 65.448 178.125 76.1395 177.872C86.8291 177.617 98.9184 183.343 98.9184 183.343L95.7551 194.838L91.2832 211.087L86.1187 221.148L83.9015 225.467C83.9015 225.467 84.9012 225.947 86.5507 226.836C93.2576 230.449 110.711 240.802 115.462 252.984C121.38 268.163 127.871 289.443 128.824 308.009C129.779 326.576 126.534 329.215 126.534 329.215Z" fill="#FAE282"/>
<path d="M98.9183 183.344L95.755 194.838C90.7707 191.721 84.4672 187.212 87.1611 185.802C91.4134 183.576 98.9183 183.344 98.9183 183.344Z" fill="#BFAB4D"/>
<path d="M77.556 183.853C77.556 183.853 76.9872 193.27 78.9811 196.324C80.975 199.379 75.9611 203.578 75.9611 203.578L71.7485 201.056L72.1464 195.168L73.2121 191.997C73.2121 191.997 75.028 187.289 77.5562 183.853H77.556Z" fill="#BFAB4D"/>
<path d="M86.5508 226.836C85.1638 229.112 81.0095 233.122 69.6593 229.914L63.3862 221.862L59.6927 214.904L58.418 211.942C58.5214 212.117 65.2338 223.31 70.1573 224.322C70.1573 224.322 66.5512 219.147 66.0425 214.904C66.0425 214.904 69.2666 220.886 71.3445 222.328C71.3445 222.328 66.237 215.575 65.398 202.45C65.398 202.45 73.276 217.067 81.5164 219.104C83.7657 219.659 85.2099 220.386 86.1187 221.148L83.9014 225.467C83.9014 225.467 84.9012 225.947 86.5507 226.836L86.5508 226.836Z" fill="#BFAB4D"/>
<path d="M62.1955 243.92C54.7441 243.283 48.7781 231.449 43.6867 230.301C41.632 229.837 38.8917 229.849 36.355 230.03C46.6127 224.704 51.1952 223.558 51.1952 223.558C51.1952 223.558 50.972 222.85 50.6562 221.607H50.658C53.8088 232.891 62.1956 243.92 62.1956 243.92L62.1955 243.92Z" fill="#BFAB4D"/>
<path d="M94.8173 254.355C94.8173 254.355 77.7408 274.081 50.1514 251.81C50.1514 251.81 54.1651 275.354 73.933 275.481C93.7008 275.608 94.8173 254.355 94.8173 254.355Z" fill="#BFAB4D"/>
<path d="M34.779 260.337C34.779 260.337 42.5389 312.085 71.7468 303.295C71.7468 303.295 66.7852 315.504 53.8046 313.405C40.8239 311.305 32.9336 284.771 34.779 260.337Z" fill="#BFAB4D"/>
<path d="M8.18093 334.212C8.18093 334.212 -4.29044 321.06 1.56321 288.472C3.04306 280.237 5.15687 272.876 7.67572 266.378C4.60879 281.35 2.39332 303.472 10.316 320.957C8.74857 326.562 7.68279 331.718 8.18093 334.212Z" fill="#BFAB4D"/>
<path d="M81.9975 236.033C79.2432 236.033 76.5392 235.254 73.9165 233.702C70.7316 231.817 67.665 228.791 64.8017 224.707C59.9486 217.786 57.3136 210.096 57.2876 210.02C57.2209 209.823 57.3262 209.609 57.523 209.543C57.7197 209.476 57.9333 209.582 57.9997 209.778C58.0255 209.854 60.6314 217.455 65.4259 224.287C71.7948 233.364 78.7889 236.851 86.2131 234.651C86.4128 234.593 86.6214 234.706 86.6804 234.905C86.7393 235.104 86.6258 235.313 86.4266 235.372C84.9397 235.813 83.4614 236.033 81.9975 236.033Z" fill="#936F5B"/>
<path d="M53.8049 230.677C53.6542 230.677 53.5118 230.585 53.4542 230.436L50.8452 223.694C50.7703 223.5 50.8666 223.282 51.0602 223.207C51.2539 223.133 51.4717 223.229 51.5466 223.423L54.1555 230.165C54.2304 230.359 54.1342 230.576 53.9406 230.651C53.8959 230.668 53.85 230.677 53.8049 230.677Z" fill="#936F5B"/>
<path d="M34.7793 296.855C34.6397 296.855 34.5059 296.777 34.4409 296.643C30.2662 288.048 16.2149 288.07 16.0751 288.074H16.0718C15.8656 288.074 15.6978 287.908 15.6958 287.701C15.694 287.493 15.8608 287.324 16.0685 287.322C16.2177 287.321 19.7614 287.302 23.8981 288.384C29.4192 289.828 33.2987 292.57 35.1173 296.315C35.2081 296.501 35.1301 296.726 34.9434 296.817C34.8905 296.843 34.8345 296.855 34.7795 296.855L34.7793 296.855Z" fill="#936F5B"/>
<path d="M63.4709 326.255C59.7311 326.255 57.5522 324.866 57.4379 324.791C57.264 324.677 57.2153 324.444 57.329 324.27C57.4425 324.097 57.6755 324.048 57.8491 324.161C57.9008 324.195 61.2761 326.315 66.7599 325.144C71.8753 324.052 79.9187 319.802 89.1874 305.753C89.3017 305.579 89.5351 305.532 89.7082 305.646C89.8816 305.76 89.9295 305.994 89.815 306.167C85.6564 312.47 81.3803 317.375 77.1056 320.745C73.665 323.457 70.2142 325.189 66.8489 325.894C65.6148 326.153 64.4854 326.255 63.4709 326.255Z" fill="#936F5B"/>
<path d="M121.762 303.672C121.661 303.672 121.56 303.631 121.486 303.551C116.753 298.436 111.987 297.121 108.822 296.919C105.388 296.699 103.038 297.704 103.014 297.714C102.824 297.797 102.602 297.71 102.519 297.52C102.436 297.33 102.523 297.108 102.713 297.025C102.814 296.981 105.223 295.945 108.828 296.166C112.141 296.369 117.122 297.727 122.038 303.04C122.179 303.192 122.17 303.43 122.017 303.571C121.945 303.638 121.853 303.672 121.762 303.672Z" fill="#936F5B"/>
<path d="M61.9608 290.064C61.9581 290.064 61.9555 290.064 61.9528 290.064C57.1284 289.965 52.8605 287.835 49.2679 283.736C46.4195 280.485 43.9897 275.994 42.0454 270.386C38.7467 260.871 37.975 251.283 37.9674 251.187C37.9515 250.98 38.1063 250.799 38.3134 250.783C38.5209 250.767 38.7013 250.922 38.7174 251.129C38.7247 251.224 39.4909 260.728 42.7604 270.152C45.7514 278.774 51.5116 289.096 61.9685 289.313C62.176 289.317 62.3409 289.489 62.3367 289.696C62.3324 289.901 62.1649 290.064 61.9608 290.064Z" fill="#936F5B"/>
<path d="M80.5654 296.083C79.3092 296.083 78.0388 295.779 77.1377 294.828C75.601 293.207 77.1504 291.737 79.2947 289.702C81.0121 288.072 83.1495 286.044 84.9808 283.047C89.1231 276.269 90.9422 276.421 91.2654 276.521C91.3842 276.557 91.4773 276.65 91.514 276.769L92.5966 280.269C92.6135 280.324 92.6178 280.381 92.6091 280.438L91.5265 287.419C91.5158 287.488 91.486 287.553 91.4409 287.606L85.1007 295.031C85.0632 295.075 85.0163 295.109 84.9634 295.132C84.8253 295.192 82.7165 296.083 80.5654 296.083ZM90.8865 277.285C90.3569 277.454 88.7139 278.381 85.6226 283.44C83.7394 286.521 81.4697 288.675 79.8124 290.248C77.4332 292.505 76.7431 293.319 77.6836 294.311C79.621 296.356 83.9511 294.728 84.5878 294.474L90.7996 287.199L91.8524 280.409L90.8865 277.285Z" fill="#936F5B"/>
<path d="M67.1675 296.14C63.3149 296.14 57.8213 294.593 57.0091 294.358C56.8656 294.317 56.7603 294.194 56.7408 294.046C56.6752 293.55 55.1504 281.867 56.3198 278.987C56.3506 278.911 56.4052 278.848 56.4754 278.806C56.5493 278.762 58.3138 277.752 60.3395 280.407C60.7629 280.961 61.7102 281.98 62.8071 283.159C67.1594 287.838 71.0525 292.22 70.8893 294.424C70.8586 294.838 70.6915 295.169 70.3927 295.408C69.7256 295.94 68.5523 296.14 67.1675 296.14ZM57.4552 293.703C60.5248 294.568 68.0931 296.281 69.9232 294.82C70.0556 294.714 70.1242 294.571 70.1392 294.369C70.2917 292.31 65.2617 286.902 62.2563 283.671C61.1003 282.428 60.1872 281.447 59.7417 280.863C58.3954 279.099 57.3066 279.287 56.9659 279.407C56.0519 282.106 57.2431 292.016 57.4552 293.703Z" fill="#936F5B"/>
<path d="M95.138 285.067C95.138 285.067 93.1139 281.857 92.0272 280.468C90.9405 279.08 86.236 266.592 86.236 266.592C86.236 266.592 82.9351 261.172 80.1224 258.942C79.5614 258.497 78.9343 257.996 78.1952 257.842C77.5441 257.707 76.9216 258.171 76.8643 258.834L75.4734 274.908C75.344 276.404 75.5725 279.503 76.3708 280.775C77.8131 283.071 79.5315 284.847 81.6403 285.268L88.306 298.557L95.138 285.067Z" fill="#FFD0C0"/>
<path d="M78.9806 272.125C78.7873 272.125 78.6231 271.977 78.6064 271.781C78.605 271.764 78.4609 270.089 78.1804 268.383C77.6494 265.153 77.1476 264.919 77.1265 264.91C77.047 264.902 76.9839 264.924 76.9188 264.986C76.57 265.318 76.472 266.481 76.5138 267.201C76.5258 267.409 76.3676 267.587 76.1602 267.599C75.9523 267.611 75.775 267.452 75.763 267.245C75.7505 267.032 75.6632 265.142 76.4004 264.441C76.6255 264.227 76.9078 264.131 77.2177 264.165C77.7291 264.22 78.329 264.735 78.9007 268.13C79.2005 269.911 79.3542 271.699 79.3557 271.717C79.3733 271.924 79.2197 272.106 79.0129 272.123C79.0021 272.124 78.9913 272.125 78.9806 272.125Z" fill="#FF8C40"/>
<path d="M81.5155 270.303C81.35 270.303 81.1986 270.193 81.1528 270.026C80.3838 267.203 78.549 262.735 77.7959 262.202C77.6466 262.097 77.5676 262.123 77.5336 262.134C77.263 262.224 76.9722 262.779 76.8606 263.126C76.7971 263.324 76.5853 263.433 76.3875 263.369C76.1899 263.305 76.081 263.094 76.1446 262.896C76.1849 262.771 76.5588 261.666 77.2955 261.421C77.5118 261.348 77.8496 261.319 78.2302 261.588C79.3771 262.4 81.3072 267.732 81.8782 269.828C81.9328 270.028 81.8146 270.235 81.6143 270.289C81.5812 270.299 81.548 270.303 81.5152 270.303L81.5155 270.303Z" fill="#FF8C40"/>
<path d="M83.8215 268.632C83.6774 268.632 83.5398 268.549 83.4775 268.408C83.4591 268.367 81.6413 264.268 81.2119 263.317C80.356 261.423 79.0333 259.326 78.1521 259.199C77.928 259.167 77.7461 259.21 77.5962 259.33C77.2361 259.621 77.1111 260.304 77.0958 260.521C77.0812 260.728 76.9016 260.883 76.6942 260.869C76.4871 260.854 76.331 260.675 76.3457 260.468C76.3541 260.349 76.4477 259.29 77.1242 258.745C77.4367 258.493 77.8293 258.392 78.2592 258.454C79.7853 258.674 81.3116 261.712 81.8972 263.008C82.3275 263.96 84.1465 268.062 84.1649 268.103C84.2491 268.293 84.1633 268.515 83.9735 268.6C83.924 268.621 83.8723 268.632 83.8213 268.632L83.8215 268.632Z" fill="#FF8C40"/>
<path d="M79.0146 275.098C78.9227 275.098 78.8306 275.064 78.7581 274.997C78.6064 274.855 78.5981 274.617 78.7396 274.465C80.936 272.111 84.7843 269.919 84.947 269.826C85.1277 269.724 85.357 269.788 85.4595 269.968C85.5618 270.149 85.4983 270.378 85.3176 270.481C85.2787 270.503 81.406 272.709 79.2894 274.978C79.2154 275.057 79.1149 275.098 79.0143 275.098L79.0146 275.098Z" fill="#FF8C40"/>
<path d="M54.4912 282.719C54.4912 282.719 56.9504 279.828 58.2231 278.608C59.4958 277.388 65.9249 265.694 65.9249 265.694C65.9249 265.694 69.9615 260.798 73.0623 258.989C73.6808 258.629 74.3726 258.221 75.126 258.174C75.7897 258.133 76.3401 258.68 76.3028 259.344L75.3984 275.454C75.3143 276.953 74.6482 279.988 73.6774 281.133C71.9239 283.202 69.9709 284.716 67.8237 284.834L59.3395 297.042L54.4912 282.719Z" fill="#FFD0C0"/>
<path d="M72.375 272.205C72.3468 272.205 72.3184 272.202 72.29 272.195C72.0877 272.148 71.9615 271.946 72.0083 271.744C72.0123 271.727 72.4181 269.978 72.9676 268.258C74.0153 264.978 74.6857 264.548 75.1964 264.572C75.5075 264.582 75.7735 264.717 75.9661 264.961C76.5963 265.76 76.2416 267.618 76.1992 267.827C76.1578 268.031 75.9593 268.163 75.7561 268.121C75.5526 268.08 75.421 267.881 75.4622 267.678C75.6052 266.97 75.6731 265.803 75.3757 265.427C75.3202 265.356 75.2608 265.327 75.1707 265.323C75.1588 265.328 74.6289 265.489 73.645 268.61C73.1252 270.259 72.745 271.897 72.741 271.913C72.7009 272.087 72.546 272.205 72.375 272.205Z" fill="#FF8C40"/>
<path d="M70.1239 270.042C70.0741 270.042 70.0234 270.032 69.9749 270.011C69.7843 269.928 69.6966 269.707 69.779 269.516C70.6419 267.522 73.309 262.518 74.5595 261.878C74.9745 261.665 75.3046 261.742 75.5086 261.844C76.2029 262.192 76.4164 263.338 76.4384 263.468C76.4733 263.673 76.3355 263.867 76.1308 263.902C75.926 263.935 75.7323 263.799 75.6972 263.595C75.6348 263.234 75.4245 262.643 75.1714 262.516C75.1398 262.501 75.0653 262.463 74.9023 262.547C74.0812 262.967 71.6308 267.13 70.4691 269.815C70.4077 269.957 70.2693 270.042 70.1239 270.042Z" fill="#FF8C40"/>
<path d="M68.0793 268.06C68.011 268.06 67.942 268.042 67.88 268.003C67.704 267.893 67.6508 267.661 67.761 267.485C67.7851 267.446 70.1677 263.644 70.729 262.762C71.4925 261.563 73.4348 258.772 74.9765 258.771H74.9777C75.4116 258.771 75.7854 258.927 76.0588 259.22C76.6511 259.856 76.5935 260.917 76.5851 261.036C76.5702 261.243 76.3907 261.401 76.1832 261.384C75.9762 261.369 75.8204 261.189 75.835 260.982C75.8506 260.748 75.8222 260.068 75.5074 259.731C75.3764 259.591 75.2033 259.523 74.9778 259.523H74.9771C74.087 259.524 72.4799 261.412 71.3637 263.166C70.8039 264.046 68.4225 267.846 68.3986 267.884C68.3273 267.998 68.2049 268.06 68.0796 268.06H68.0793Z" fill="#FF8C40"/>
<path d="M71.9196 275.143C71.8007 275.143 71.6839 275.086 71.6108 274.982C69.8375 272.435 66.3173 269.702 66.2819 269.674C66.1175 269.547 66.0873 269.311 66.2142 269.147C66.341 268.982 66.5771 268.952 66.7415 269.079C66.8895 269.193 70.3878 271.91 72.2278 274.552C72.3466 274.722 72.3045 274.957 72.1341 275.075C72.0686 275.121 71.9937 275.143 71.9196 275.143Z" fill="#FF8C40"/>
<path d="M70.1573 295.114C70.1573 295.114 51.7912 310.236 39.0218 315.123C38.2203 315.43 37.4401 315.697 36.6885 315.917C25.7863 319.107 18.0583 316.874 13.3472 311.16C13.9416 309.371 14.5237 307.675 15.0538 306.15C16.8194 301.073 21.1377 295.55 25.4258 295.114L56.6685 279.13C56.6685 279.13 60.6138 293.495 70.1573 295.114Z" fill="#877718"/>
<path d="M27.4349 317.747C21.687 317.747 16.965 315.797 13.5252 311.945C13.387 311.79 13.4003 311.552 13.5553 311.414C13.71 311.275 13.9478 311.289 14.0862 311.444C19.0389 316.991 26.8179 318.413 36.5821 315.557C47.8729 312.254 65.7804 298.154 69.3061 295.32C65.5989 294.395 62.225 291.433 59.5071 286.701C57.7721 283.681 56.7756 280.753 56.4369 279.669L25.6396 295.426L22.1764 298.534C22.0216 298.672 21.784 298.659 21.6455 298.505C21.5068 298.35 21.5197 298.113 21.6742 297.974L25.1738 294.834C25.198 294.812 25.2248 294.794 25.2537 294.779L56.4963 278.794C56.5971 278.743 56.7158 278.739 56.8191 278.785C56.9226 278.831 57.0002 278.92 57.0301 279.029C57.0689 279.171 61.024 293.183 70.2201 294.743C70.3652 294.768 70.4827 294.875 70.5206 295.017C70.5585 295.159 70.5099 295.311 70.3964 295.404C70.1884 295.576 49.4469 312.577 36.7931 316.279C33.4392 317.26 30.3085 317.747 27.4349 317.747Z" fill="#936F5B"/>
<path d="M123.665 314.917C119.889 326.724 107.332 326.278 99.1739 321.549C97.3282 320.48 95.2965 318.666 93.24 316.472C85.5084 308.223 77.4106 294.57 77.4106 294.57C92.3008 290.242 91.1547 276.88 91.1547 276.88L106.452 299.088C115.887 303.696 120.962 309.576 123.665 314.917L123.665 314.917Z" fill="#877718"/>
<path d="M110.117 304.872C109.997 304.872 109.879 304.814 109.806 304.707L106.14 299.298C106.023 299.126 106.068 298.893 106.24 298.776C106.412 298.66 106.645 298.704 106.762 298.877L110.428 304.285C110.545 304.457 110.5 304.691 110.328 304.807C110.263 304.851 110.19 304.872 110.117 304.872Z" fill="#936F5B"/>
<path d="M110.285 325.045C106.096 325.045 101.978 323.609 98.9852 321.875C97.2474 320.868 95.222 319.137 92.9656 316.729C85.2946 308.545 77.1685 294.898 77.0873 294.761C77.028 294.661 77.0182 294.539 77.0609 294.431C77.1037 294.323 77.1941 294.241 77.3057 294.209C83.352 292.451 87.4567 289.014 89.5057 283.991C91.0385 280.234 90.7828 276.945 90.7801 276.912C90.7658 276.742 90.8676 276.584 91.0281 276.527C91.1886 276.469 91.3677 276.527 91.4644 276.667L106.762 298.875C106.88 299.046 106.837 299.28 106.665 299.398C106.495 299.516 106.26 299.473 106.142 299.301L91.5426 278.106C91.4929 279.45 91.2364 281.726 90.215 284.244C88.7765 287.789 85.4878 292.462 77.9823 294.791C79.4013 297.133 86.6492 308.89 93.5143 316.215C95.7205 318.569 97.6881 320.254 99.3624 321.224C104.738 324.34 111.004 325.147 115.716 323.33C119.398 321.91 121.951 319.042 123.307 314.803C123.37 314.605 123.582 314.496 123.779 314.559C123.977 314.623 124.086 314.834 124.023 315.032C122.615 319.435 119.836 322.548 115.987 324.032C114.139 324.744 112.205 325.045 110.285 325.045L110.285 325.045Z" fill="#936F5B"/>
<path d="M99.365 201.351C99.174 212.74 95.7679 225.415 87.7827 227.822C79.1299 230.43 74.1886 218.68 74.1886 218.68C74.1886 218.68 71.6857 212.931 71.7482 200.206C71.7482 200.206 73.3192 197.279 76.2934 193.919C79.5942 190.188 84.6266 185.925 91.1551 184.552C91.1551 184.552 95.702 187.482 98.0299 193.566C98.8654 195.751 99.415 198.341 99.365 201.351Z" fill="#FFD0C0"/>
<path d="M82.1841 214.904C82.1841 214.904 85.5575 217.444 92.1741 217.004C92.1741 217.004 90.8026 220.281 86.5394 219.963C82.2761 219.645 82.1841 214.904 82.1841 214.904Z" fill="#F2F2F2"/>
<path d="M71.7491 200.582C71.7351 200.582 71.7209 200.581 71.7066 200.579C71.5002 200.556 71.3518 200.37 71.3749 200.164C71.4055 199.892 72.1397 193.474 73.5859 189.987C73.6655 189.795 73.8857 189.704 74.0773 189.783C74.269 189.863 74.3602 190.083 74.2806 190.275C72.8754 193.664 72.1297 200.182 72.1223 200.248C72.1006 200.44 71.9379 200.582 71.7491 200.582Z" fill="#936F5B"/>
<path d="M98.0298 193.566C96.8676 193.001 95.5752 192.489 94.1471 192.061C87.6686 190.122 80.2458 192.359 76.2935 193.919C79.5943 190.188 84.6267 185.925 91.1552 184.552C91.1552 184.552 95.702 187.482 98.0298 193.566Z" fill="#936F5B"/>
<path d="M84.0069 228.711C83.5703 228.711 83.1033 228.693 82.6087 228.652C79.7024 228.41 75.265 227.261 70.6298 223.161C70.4743 223.023 70.4597 222.786 70.5973 222.63C70.7351 222.475 70.9726 222.46 71.1281 222.598C75.0391 226.057 78.8117 227.378 81.7626 227.789C80.2609 227.115 78.816 226.008 77.4591 224.478C75.1276 221.851 73.8926 218.948 73.8411 218.825C73.7396 218.592 71.3093 212.864 71.3725 200.204C71.3728 200.145 71.3869 200.087 71.4137 200.035C71.4898 199.885 73.3212 196.341 77.0024 192.501C80.4065 188.95 86.0876 184.502 93.8215 183.48C94.028 183.453 94.2163 183.597 94.2435 183.803C94.2708 184.009 94.1259 184.198 93.92 184.225C86.4024 185.219 80.866 189.557 77.5452 193.021C74.2341 196.475 72.4133 199.759 72.1241 200.3C72.074 212.713 74.5079 218.473 74.5325 218.53C74.5464 218.563 75.7799 221.458 78.0335 223.993C80.9997 227.329 84.2437 228.496 87.6749 227.461C87.87 227.403 88.0772 227.51 88.1407 227.704C88.2043 227.898 88.1014 228.108 87.9089 228.176C87.8367 228.201 86.3672 228.711 84.0069 228.711Z" fill="#936F5B"/>
<defs>
<clipPath id="clip0_42_3851">
<rect width="412.935" height="408.528" fill="white" transform="translate(24)"/>
</clipPath>
</defs>
</svg>
